<?xml version="1.0" encoding="UTF-8" standalone="no"?>
<!DOCTYPE svg PUBLIC "-//W3C//DTD SVG 1.1//EN" "http://www.w3.org/Graphics/SVG/1.1/DTD/svg11.dtd">
<svg xmlns="http://www.w3.org/2000/svg" version="1.1" viewBox="0.00 0.00 453.00 244.00">
<g stroke-width="2.00" fill="none" stroke-linecap="butt">
<path stroke="#a6ecaf" vector-effect="non-scaling-stroke" d="
  M 135.89 60.49
  Q 134.44 61.78 133.35 60.91
  Q 125.03 54.30 115.76 50.02
  A 0.45 0.45 0.0 0 1 116.00 49.16
  C 120.13 49.58 124.51 48.53 127.59 48.64
  Q 130.74 48.76 134.39 49.45
  A 0.14 0.14 0.0 0 0 134.49 49.19
  L 130.96 47.11
  Q 130.52 46.85 130.86 46.47
  Q 131.29 45.99 132.01 46.19
  Q 134.68 46.90 136.98 46.52
  A 0.36 0.36 0.0 0 0 137.01 45.81
  L 133.87 44.99
  Q 133.50 44.89 133.50 44.51
  L 133.50 44.15
  A 0.44 0.44 0.0 0 1 134.01 43.72
  L 145.75 45.69"
/>
<path stroke="#cdf89d" vector-effect="non-scaling-stroke" d="
  M 145.75 45.69
  C 145.94 50.15 149.16 49.55 151.74 47.95
  Q 158.64 43.67 165.48 39.29
  C 169.47 36.74 171.64 34.33 171.63 29.68
  C 171.61 26.11 169.51 24.04 165.98 23.99
  C 161.48 23.94 146.68 22.09 145.77 27.99
  Q 145.33 30.80 145.48 41.92
  Q 145.50 43.60 144.26 43.58"
/>
<path stroke="#a6ecaf" vector-effect="non-scaling-stroke" d="
  M 144.26 43.58
  C 132.58 40.56 125.27 39.44 114.85 42.17
  A 0.83 0.83 0.0 0 1 114.01 40.83
  Q 118.47 35.63 119.35 28.64
  C 119.94 23.90 116.35 17.53 114.20 13.30
  A 0.61 0.61 0.0 0 0 113.06 13.69
  Q 113.99 18.49 114.92 23.76
  Q 114.96 24.00 114.84 24.19
  A 0.32 0.32 0.0 0 1 114.28 24.18
  L 110.88 18.00
  A 0.47 0.47 0.0 0 0 110.02 18.36
  C 110.87 21.33 112.05 22.59 111.20 25.93
  Q 111.09 26.34 110.89 25.97
  L 108.20 21.07
  A 0.34 0.34 0.0 0 0 107.56 21.21
  C 107.33 24.18 108.90 28.65 108.12 31.35
  A 0.26 0.26 0.0 0 1 107.61 31.32
  Q 106.87 26.94 106.25 25.81
  Q 105.89 25.16 105.37 25.25
  Q 104.99 25.33 105.06 25.71
  L 106.73 35.45
  A 0.53 0.53 0.0 0 1 105.72 35.75
  Q 104.54 32.95 102.65 30.34
  Q 102.49 30.11 102.14 30.29
  A 0.55 0.55 0.0 0 0 101.90 31.02
  Q 104.02 35.33 103.21 40.08
  Q 102.98 41.47 102.43 40.17
  L 100.26 34.95
  Q 100.17 34.75 99.96 34.75
  Q 99.83 34.75 99.69 34.74
  Q 99.29 34.71 99.39 35.10
  Q 100.35 39.17 100.29 41.04
  Q 100.15 45.94 98.92 41.19
  C 94.91 25.71 84.20 20.40 68.96 18.53
  Q 67.95 18.41 68.88 18.81
  L 79.13 23.22
  A 0.58 0.58 0.0 0 1 78.76 24.31
  Q 76.16 23.68 73.26 23.18
  Q 72.48 23.04 71.89 23.33
  Q 71.44 23.54 71.91 23.71
  L 80.50 26.89
  A 0.40 0.40 0.0 0 1 80.37 27.67
  Q 77.86 27.73 75.23 26.83
  Q 74.17 26.47 73.60 26.85
  Q 73.12 27.17 73.64 27.42
  L 83.26 32.01
  Q 83.81 32.26 83.38 32.68
  Q 83.03 33.03 82.57 32.73
  Q 79.68 30.84 76.76 31.40
  Q 76.08 31.53 76.72 31.80
  L 86.19 35.77
  A 0.37 0.36 -30.9 0 1 86.01 36.47
  L 79.94 35.95
  A 0.19 0.19 0.0 0 0 79.84 36.31
  L 88.80 40.42
  A 0.43 0.43 0.0 0 1 88.54 41.24
  L 83.03 40.17
  A 0.37 0.37 0.0 0 0 82.80 40.86
  L 91.16 45.01
  A 0.48 0.48 0.0 0 1 90.76 45.88
  C 81.20 41.82 71.53 37.92 60.96 41.15
  C 57.61 42.18 54.18 44.32 51.00 46.05
  Q 48.45 47.43 51.30 46.87
  Q 56.19 45.90 60.92 44.30
  Q 61.30 44.17 61.58 44.46
  L 61.82 44.69
  A 0.40 0.40 0.0 0 1 61.77 45.29
  L 58.45 47.66
  A 0.29 0.29 0.0 0 0 58.73 48.17
  Q 61.66 47.02 64.63 46.16
  Q 65.08 46.03 65.38 46.13
  Q 65.74 46.25 65.91 46.55
  Q 66.15 46.96 65.74 47.19
  L 61.20 49.66
  A 0.33 0.33 0.0 0 0 61.43 50.27
  Q 65.23 49.40 68.99 48.47
  Q 69.49 48.35 69.65 48.81
  Q 69.82 49.31 69.35 49.56
  L 68.67 49.93
  A 0.25 0.24 28.5 0 0 68.81 50.39
  Q 72.22 50.11 76.05 48.76
  Q 76.94 48.45 77.34 49.25
  Q 77.57 49.71 77.13 49.98
  L 74.25 51.72
  A 0.38 0.37 22.2 0 0 74.54 52.40
  L 82.30 50.48
  A 0.53 0.53 0.0 0 1 82.76 51.40
  L 80.44 53.26
  A 0.55 0.55 0.0 0 0 80.62 54.21
  L 80.99 54.33
  A 0.39 0.39 0.0 0 1 81.00 55.07
  C 71.33 58.68 63.32 66.05 63.86 76.49
  A 0.65 0.65 0.0 0 0 65.15 76.57
  Q 65.68 73.47 67.44 70.83
  A 0.72 0.71 61.9 0 1 68.75 71.23
  L 68.75 73.23
  Q 68.75 75.40 69.60 73.41
  Q 70.90 70.38 72.18 69.48
  A 0.52 0.52 0.0 0 1 73.00 69.95
  L 72.69 73.60
  A 0.22 0.22 0.0 0 0 73.10 73.73
  L 76.83 67.30
  Q 77.15 66.74 77.68 67.12
  L 78.56 67.74
  Q 79.07 68.09 79.32 67.53
  L 81.18 63.41
  A 0.79 0.79 0.0 0 1 82.69 63.70
  L 82.78 66.26
  A 0.29 0.29 0.0 0 0 83.34 66.34
  Q 84.25 63.66 85.92 61.46
  A 0.95 0.65 -18.6 0 1 87.48 61.90
  Q 87.05 62.46 87.30 63.04
  A 0.86 0.83 48.5 0 1 87.27 63.79
  Q 82.83 71.62 84.20 80.23
  C 84.86 84.36 88.08 87.95 90.46 91.50
  A 0.33 0.32 16.9 0 0 91.03 91.20
  Q 89.67 88.03 88.49 84.51
  Q 88.22 83.69 88.98 83.04
  Q 89.27 82.79 89.56 83.03
  L 91.33 84.50
  A 0.32 0.31 88.2 0 0 91.76 84.04
  Q 90.09 82.23 90.82 80.02
  A 0.70 0.70 0.0 0 1 92.04 79.82
  L 94.09 82.58
  A 0.25 0.25 0.0 0 0 94.54 82.37
  L 93.02 76.16
  A 0.56 0.55 89.6 0 1 93.68 75.48
  Q 94.24 75.61 94.54 75.28
  Q 94.85 74.94 94.65 74.20
  Q 94.05 71.98 93.46 69.81
  A 0.66 0.66 0.0 0 1 94.59 69.20
  L 97.19 72.10"
/>
<path stroke="#f3dbaf" vector-effect="non-scaling-stroke" d="
  M 97.19 72.10
  C 98.38 73.53 99.37 74.63 99.58 76.60
  C 100.29 83.26 101.20 89.81 101.36 96.49
  C 101.97 122.79 102.78 145.33 99.55 174.55"
/>
<path stroke="#dbe0be" vector-effect="non-scaling-stroke" d="
  M 99.55 174.55
  L 16.51 174.51
  Q 15.87 174.51 15.85 175.14
  L 15.73 177.80
  A 0.51 0.50 -88.9 0 0 16.23 178.33
  L 100.24 178.19"
/>
<path stroke="#f3dbaf" vector-effect="non-scaling-stroke" d="
  M 100.24 178.19
  L 105.45 178.24
  A 2.39 2.38 5.1 0 0 107.83 176.26
  Q 108.80 170.53 108.91 165.50
  C 109.50 138.00 110.60 113.81 107.81 83.35
  C 107.52 80.14 108.10 77.37 108.78 74.31
  A 0.73 0.72 -64.9 0 0 108.52 73.58
  L 106.90 72.31
  Q 106.63 72.10 106.57 71.77
  Q 106.19 69.43 106.94 67.31"
/>
<path stroke="#a6ecaf" vector-effect="non-scaling-stroke" d="
  M 106.94 67.31
  L 111.01 78.38
  A 0.41 0.41 0.0 0 0 111.77 78.40
  L 112.47 76.82
  A 0.58 0.58 0.0 0 1 113.58 77.02
  L 113.82 81.30
  A 0.29 0.28 -26.8 0 0 114.32 81.46
  L 115.47 80.10
  A 0.50 0.49 -44.7 0 1 116.22 80.10
  Q 117.13 81.19 116.88 82.45
  Q 116.79 82.86 116.81 83.28
  L 117.06 88.00
  Q 117.08 88.32 117.17 88.02
  Q 118.34 84.08 119.08 79.73
  C 119.59 76.76 117.50 70.09 116.07 67.37
  Q 113.81 63.05 113.05 58.13
  A 0.46 0.46 0.0 0 1 113.80 57.72
  L 118.79 62.01
  A 0.28 0.28 0.0 0 0 119.22 61.67
  L 118.31 59.87
  Q 117.94 59.15 118.63 59.58
  L 127.71 65.21"
/>
<path stroke="#dbe0be" vector-effect="non-scaling-stroke" d="
  M 127.71 65.21
  Q 125.28 66.30 124.67 67.38
  A 0.95 0.95 0.0 0 1 124.31 67.74
  L 118.97 70.96
  A 0.38 0.38 0.0 0 0 119.18 71.67
  L 134.05 71.39"
/>
<path stroke="#a6ecaf" vector-effect="non-scaling-stroke" d="
  M 134.05 71.39
  Q 136.06 71.77 138.08 70.44
  A 0.57 0.53 31.1 0 1 138.46 70.36
  L 139.69 70.56
  Q 140.20 70.64 140.33 70.14
  Q 140.65 68.96 142.11 67.94"
/>
<path stroke="#dbe0be" vector-effect="non-scaling-stroke" d="
  M 142.11 67.94
  Q 178.16 46.34 214.16 24.28
  C 222.06 19.44 224.07 18.54 232.82 23.83
  C 258.45 39.33 283.83 55.27 309.69 70.38
  C 313.26 72.47 323.85 71.65 328.29 71.80
  A 0.53 0.52 -28.0 0 0 328.59 70.83
  L 224.71 6.08
  A 1.29 1.27 -44.7 0 0 223.36 6.08
  L 135.89 60.49"
/>
<path stroke="#82cd6d" vector-effect="non-scaling-stroke" d="
  M 142.11 67.94
  L 135.89 60.49"
/>
<path stroke="#74e44d" vector-effect="non-scaling-stroke" d="
  M 144.26 43.58
  L 145.29 43.78
  Q 145.73 43.86 145.74 44.32
  L 145.75 45.69"
/>
<path stroke="#82cd6d" vector-effect="non-scaling-stroke" d="
  M 134.05 71.39
  L 133.33 69.52
  Q 133.16 69.07 132.67 69.05
  L 129.53 68.97
  Q 129.05 68.96 128.65 68.70
  Q 126.45 67.29 127.71 65.21"
/>
<path stroke="#9ac85f" vector-effect="non-scaling-stroke" d="
  M 106.94 67.31
  L 104.92 64.12
  Q 104.66 63.72 104.19 63.76
  L 99.43 64.08
  Q 99.00 64.11 98.98 64.54
  Q 98.87 66.07 97.70 66.57"
/>
<path stroke="#a6ecaf" vector-effect="non-scaling-stroke" d="
  M 97.70 66.57
  Q 97.14 64.97 96.01 64.05
  Q 95.45 63.59 95.67 64.28
  L 98.13 72.24"
/>
<path stroke="#9ac85f" vector-effect="non-scaling-stroke" d="
  M 98.13 72.24
  Q 98.39 71.59 97.19 72.10"
/>
<path stroke="#cfbc6e" vector-effect="non-scaling-stroke" d="
  M 100.24 178.19
  L 99.94 177.19
  Q 99.80 176.73 99.43 176.41
  Q 98.37 175.52 99.55 174.55"
/>
<path stroke="#f3dbaf" vector-effect="non-scaling-stroke" d="
  M 98.13 72.24
  Q 99.51 69.89 97.70 66.57"
/>
<path stroke="#cdf89d" vector-effect="non-scaling-stroke" d="
  M 236.81 29.10
  C 234.10 27.39 228.09 23.50 225.14 26.06
  A 1.24 1.22 -20.7 0 0 224.71 26.99
  L 224.83 84.98
  Q 224.83 85.84 225.47 85.26
  Q 229.64 81.48 234.95 79.51
  A 1.78 1.74 -82.1 0 0 235.79 78.86
  C 238.05 75.59 238.62 71.62 241.09 68.82
  C 249.87 58.86 265.86 54.64 278.58 55.31
  A 0.45 0.45 0.0 0 0 278.82 54.47
  C 270.68 49.93 261.90 43.85 255.08 39.86
  C 248.97 36.29 242.97 32.97 236.81 29.10"
/>
<path stroke="#dbe0be" vector-effect="non-scaling-stroke" d="
  M 197.31 90.35
  L 195.57 89.64
  Q 195.07 89.43 194.60 89.71
  Q 184.22 95.91 173.70 89.88
  A 1.09 1.08 -45.3 0 0 172.60 89.89
  L 154.48 100.62
  A 0.76 0.76 0.0 0 0 154.75 102.03
  C 162.93 103.27 171.89 102.03 180.25 102.44
  Q 189.18 102.88 216.50 102.30
  C 220.57 102.21 221.70 98.94 221.72 95.23
  Q 221.88 62.37 221.71 29.50
  Q 221.70 27.98 221.77 27.07
  A 0.95 0.94 -72.1 0 0 221.33 26.20
  Q 219.35 24.93 217.20 26.20
  Q 185.19 45.12 153.28 64.22
  C 144.26 69.61 145.84 80.39 146.30 91.07
  Q 146.39 93.00 146.64 93.49
  Q 147.96 96.07 150.15 94.76
  L 167.92 84.12
  Q 168.39 83.84 168.23 83.32
  Q 164.89 72.56 174.45 67.46
  Q 174.95 67.19 175.14 66.66
  Q 177.06 61.24 182.98 60.45
  Q 183.62 60.36 184.08 60.81
  L 187.88 64.56
  A 0.55 0.55 0.0 0 0 188.56 64.64
  L 199.55 58.08
  A 0.67 0.66 51.0 0 1 200.35 58.17
  L 202.44 60.14
  A 0.71 0.71 0.0 0 1 202.33 61.26
  L 191.54 67.94
  A 0.76 0.75 -36.4 0 0 191.36 69.07
  L 197.44 76.22
  A 0.64 0.63 -35.7 0 0 198.26 76.35
  L 209.21 69.69
  A 0.82 0.82 0.0 0 1 210.17 69.77
  L 212.30 71.62
  A 0.84 0.84 0.0 0 1 212.20 72.96
  L 201.84 79.54
  A 1.08 1.07 -35.4 0 0 201.57 81.11
  L 204.52 84.82
  A 0.93 0.93 0.0 0 1 204.31 86.18
  L 198.14 90.26
  A 0.91 0.90 38.6 0 1 197.31 90.35"
/>
<path stroke="#cdf89d" vector-effect="non-scaling-stroke" d="
  M 261.42 63.42
  C 258.71 67.59 265.40 73.62 268.28 75.68
  Q 281.28 84.99 294.43 94.10
  Q 296.63 95.63 299.41 95.68
  A 1.79 1.79 0.0 0 0 301.24 93.88
  L 301.18 71.08
  Q 301.18 70.54 300.88 70.09
  C 297.42 64.90 287.89 58.23 281.30 58.12
  C 276.48 58.04 264.35 58.90 261.42 63.42"
/>
<path stroke="#cdf89d" vector-effect="non-scaling-stroke" d="
  M 234.94 92.95
  L 225.63 87.33
  Q 225.15 87.04 225.09 87.59
  Q 224.38 93.41 225.20 99.23
  A 1.38 1.34 -73.7 0 0 225.64 100.06
  C 228.96 102.99 231.94 102.64 236.08 102.68
  Q 261.54 102.94 287.12 102.54
  A 0.71 0.70 -26.9 0 0 287.54 101.27
  C 278.20 94.27 268.74 86.68 258.06 81.71
  C 253.50 79.58 243.87 78.03 241.73 84.23
  Q 240.28 88.43 238.20 92.10
  A 2.36 2.35 -59.5 0 1 234.94 92.95"
/>
<path stroke="#cdf89d" vector-effect="non-scaling-stroke" d="
  M 187.74 117.56
  A 0.99 0.99 0.0 0 1 188.10 119.28
  L 180.99 125.15
  A 0.82 0.81 64.4 0 0 180.72 125.94
  L 182.56 134.12
  A 0.95 0.95 0.0 0 0 183.21 134.82
  L 193.08 137.77
  A 0.78 0.78 0.0 0 0 193.72 137.68
  Q 197.14 135.49 200.37 132.95
  C 204.29 129.86 204.50 135.23 204.70 137.68
  Q 204.74 138.13 204.37 138.40
  L 190.26 149.08
  Q 189.82 149.41 189.27 149.35
  C 185.29 148.90 181.82 146.89 177.91 146.74
  A 1.64 1.60 29.7 0 0 176.99 146.98
  Q 166.45 153.47 157.55 162.06
  A 1.11 1.11 0.0 0 0 157.98 163.92
  Q 160.87 164.84 164.50 164.83
  Q 189.64 164.79 214.77 164.73
  C 220.17 164.71 222.60 161.68 222.53 156.27
  Q 222.28 134.44 222.47 112.57
  C 222.52 107.05 219.62 105.11 214.31 105.08
  Q 183.62 104.89 152.95 105.07
  C 146.69 105.11 145.73 108.83 145.74 114.39
  Q 145.75 130.85 145.76 147.31
  C 145.77 148.41 146.12 149.66 146.36 150.74
  Q 146.46 151.22 146.91 151.42
  C 150.48 153.07 159.83 144.77 163.62 141.56
  Q 166.65 139.00 166.98 138.55
  C 168.73 136.14 167.04 131.13 166.19 128.31
  A 0.82 0.81 61.8 0 1 166.44 127.46
  Q 172.69 122.12 179.31 117.27
  C 181.97 115.32 185.16 116.82 187.74 117.56"
/>
<path stroke="#c7c7c6" vector-effect="non-scaling-stroke" d="
  M 225.24 159.08
  Q 226.43 164.21 232.26 164.22
  Q 259.72 164.27 289.25 164.29
  Q 290.76 164.29 289.65 163.27
  C 285.99 159.92 281.33 155.74 276.30 154.19"
/>
<path stroke="#dbe0be" vector-effect="non-scaling-stroke" d="
  M 276.30 154.19
  Q 270.48 152.91 265.49 156.15
  A 1.01 1.00 49.5 0 1 264.28 156.05
  Q 259.98 152.17 255.83 148.12
  C 251.47 143.86 252.84 140.77 257.23 137.26
  C 261.99 133.45 272.35 122.12 278.97 127.37
  Q 284.44 131.71 288.86 136.58
  A 1.29 1.29 0.0 0 1 288.83 138.35
  C 283.34 144.00 285.51 148.74 290.63 153.65
  Q 295.27 158.09 300.07 162.61
  A 0.40 0.40 0.0 0 0 300.74 162.32
  Q 301.09 137.00 300.65 111.50
  Q 300.56 106.29 295.30 105.71
  C 289.34 105.04 282.25 105.53 278.09 105.48
  Q 256.06 105.21 234.06 105.51
  C 225.09 105.63 225.32 108.67 225.31 116.87
  Q 225.29 137.89 225.24 159.08"
/>
<path stroke="#a3a884" vector-effect="non-scaling-stroke" d="
  M 276.30 154.19
  Q 275.97 155.37 275.28 156.25
  Q 274.98 156.64 274.49 156.69
  L 272.99 156.84
  Q 272.16 156.92 272.44 157.71
  Q 272.71 158.44 272.36 158.87
  Q 272.05 159.26 271.07 159.26
  Q 269.19 159.26 267.27 159.60
  A 0.63 0.62 -5.0 0 0 266.75 160.21
  L 266.75 161.71
  Q 266.75 162.39 266.07 162.37
  Q 253.00 161.87 229.25 161.99
  Q 227.62 162.00 228.05 160.31
  Q 228.18 159.80 227.73 159.52
  Q 226.59 158.81 225.24 159.08"
/>
<path stroke="#dbe0be" vector-effect="non-scaling-stroke" d="
  M 421.6579 175.0571
  A 0.70 0.70 0.0 0 0 420.9566 174.3584
  L 304.4768 174.5617
  A 0.70 0.70 0.0 0 0 303.7780 175.2629
  L 303.7821 177.6029
  A 0.70 0.70 0.0 0 0 304.4834 178.3016
  L 420.9632 178.0983
  A 0.70 0.70 0.0 0 0 421.6620 177.3971
  L 421.6579 175.0571"
/>
<path stroke="#ffc9af" vector-effect="non-scaling-stroke" d="
  M 144.50 183.50
  L 144.50 185.50
  A 1.25 1.25 0.0 0 0 145.75 186.75
  L 153.80 186.75
  Q 154.60 186.75 154.56 187.55
  L 153.78 203.64
  Q 153.75 204.27 154.38 204.26
  L 162.14 204.11
  Q 162.87 204.10 162.72 203.39
  Q 161.10 195.41 161.84 187.26
  Q 161.90 186.62 162.53 186.63
  L 170.72 186.76
  Q 171.27 186.77 171.30 186.22
  L 171.52 181.68
  Q 171.55 181.12 170.99 181.12
  L 135.22 181.26
  Q 134.52 181.26 134.65 181.95
  Q 136.68 192.77 134.53 203.55
  A 0.58 0.57 -84.2 0 0 135.09 204.24
  L 142.95 204.25
  A 0.57 0.56 87.2 0 0 143.51 203.63
  Q 142.49 193.73 143.27 183.82
  A 0.72 0.54 -51.2 0 1 144.50 183.50"
/>
<path stroke="#ffc9af" vector-effect="non-scaling-stroke" d="
  M 395.21 202.07
  Q 393.76 202.36 392.64 200.55
  C 390.57 197.20 382.54 185.64 383.30 182.18
  A 1.04 1.04 0.0 0 0 382.31 180.91
  L 374.06 180.71
  Q 373.45 180.70 373.41 181.31
  C 372.96 187.92 366.28 196.98 362.66 202.45
  A 0.93 0.93 0.0 0 0 363.43 203.89
  L 371.74 204.02
  A 0.60 0.60 0.0 0 0 372.29 203.15
  C 369.12 197.10 378.59 198.78 381.22 198.73
  C 383.77 198.69 384.99 200.14 383.73 202.54
  A 0.96 0.96 0.0 0 0 384.59 203.94
  L 403.96 203.69
  Q 404.61 203.68 404.58 203.03
  L 404.23 195.99
  Q 404.21 195.55 404.63 195.42
  C 409.52 193.97 412.98 199.22 414.17 203.28
  Q 414.33 203.81 414.88 203.80
  L 423.14 203.64
  A 0.94 0.94 0.0 0 0 423.82 202.07
  L 417.68 195.32
  Q 417.19 194.79 417.86 194.50
  C 422.30 192.59 424.61 188.87 422.16 184.80
  C 418.57 178.85 402.51 180.67 396.36 180.80
  Q 395.99 180.81 396.00 181.17
  L 396.34 200.67
  A 1.41 1.40 -6.2 0 1 395.21 202.07"
/>
<path stroke="#ffc9af" vector-effect="non-scaling-stroke" d="
  M 108.62 201.55
  A 0.60 0.60 0.0 0 1 107.43 201.43
  L 107.67 181.78
  Q 107.68 181.39 107.29 181.38
  L 100.31 181.20
  Q 99.24 181.17 99.49 182.21
  Q 100.68 187.27 100.16 192.51
  A 0.45 0.45 0.0 0 1 99.42 192.81
  L 89.05 184.07
  Q 88.64 183.73 88.74 183.21
  Q 88.89 182.43 88.49 181.76
  Q 88.22 181.30 87.69 181.30
  L 79.56 181.23
  Q 78.92 181.22 79.00 181.85
  Q 80.07 190.77 79.56 199.74
  Q 79.47 201.48 78.78 201.94
  Q 77.34 202.92 76.43 201.43
  L 66.42 185.17
  Q 66.12 184.69 66.20 184.13
  L 66.50 181.92
  A 0.60 0.60 0.0 0 0 65.91 181.23
  L 56.58 181.20
  A 0.61 0.61 0.0 0 0 55.99 181.98
  L 56.59 184.10
  Q 56.72 184.58 56.47 185.01
  Q 52.45 191.94 48.40 198.87
  Q 47.48 200.44 46.55 201.14
  A 1.84 1.83 48.7 0 1 44.14 200.98
  L 38.98 195.81
  A 0.46 0.46 0.0 0 1 39.08 195.09
  C 44.29 192.17 47.30 186.76 41.10 182.70
  C 36.87 179.92 22.37 181.06 17.47 181.34
  Q 16.91 181.37 16.97 181.93
  Q 18.06 192.45 17.14 203.02
  Q 17.03 204.27 18.29 204.26
  L 25.55 204.22
  A 0.73 0.73 0.0 0 0 26.24 203.25
  Q 25.05 199.79 25.60 196.14
  Q 25.65 195.75 26.04 195.75
  L 29.52 195.75
  Q 30.03 195.75 30.44 196.05
  Q 34.54 199.06 35.43 203.95
  Q 35.51 204.38 35.94 204.38
  L 54.84 204.19
  A 0.66 0.65 -89.6 0 0 55.49 203.54
  L 55.51 199.75
  A 0.50 0.50 0.0 0 1 55.95 199.25
  C 59.21 198.90 69.96 197.57 67.03 202.75
  A 1.00 0.99 14.7 0 0 67.90 204.23
  L 86.89 204.16
  A 0.66 0.66 0.0 0 0 87.52 203.35
  Q 86.24 197.90 86.87 192.30
  A 0.37 0.37 0.0 0 1 87.47 192.06
  L 98.37 201.05
  A 1.09 1.09 0.0 0 1 98.76 201.84
  C 98.91 205.48 105.52 204.51 107.93 203.46
  C 109.89 202.61 110.99 202.56 113.22 203.26
  C 119.33 205.17 129.72 204.95 129.94 196.07
  Q 130.11 188.98 130.52 181.83
  Q 130.56 181.25 129.97 181.25
  L 122.35 181.25
  Q 121.95 181.25 121.96 181.65
  L 122.35 197.13
  A 1.16 1.15 81.6 0 1 121.51 198.27
  Q 116.42 199.70 112.44 196.53
  A 0.77 0.77 0.0 0 0 111.47 196.54
  Q 109.19 198.49 108.62 201.55"
/>
<path stroke="#ffc9af" vector-effect="non-scaling-stroke" d="
  M 200.86 188.25
  L 200.49 203.71
  A 0.53 0.53 0.0 0 0 201.02 204.25
  L 208.21 204.25
  Q 208.73 204.25 208.72 203.73
  L 208.41 187.57
  Q 208.40 186.94 209.02 186.83
  Q 212.54 186.17 216.06 186.81
  A 1.32 1.32 0.0 0 0 217.62 185.48
  L 217.52 181.67
  A 0.52 0.52 0.0 0 0 217.00 181.16
  L 191.92 181.16
  A 0.42 0.42 0.0 0 0 191.50 181.58
  L 191.50 186.01
  A 0.82 0.82 0.0 0 0 192.47 186.82
  Q 196.15 186.13 199.80 186.90
  A 1.34 1.34 0.0 0 1 200.86 188.25"
/>
<path stroke="#ffc9af" vector-effect="non-scaling-stroke" d="
  M 255.35 198.20
  L 255.95 181.60
  Q 255.96 181.30 255.67 181.29
  L 247.97 181.15
  A 0.73 0.73 0.0 0 0 247.23 181.95
  Q 248.30 192.81 247.32 203.68
  Q 247.28 204.22 247.82 204.22
  L 271.84 204.26
  Q 272.46 204.27 272.49 203.66
  L 272.76 199.30
  A 0.65 0.65 0.0 0 0 272.10 198.61
  L 255.95 198.81
  Q 255.33 198.82 255.35 198.20"
/>
<path stroke="#ffc9af" vector-effect="non-scaling-stroke" d="
  M 274.59 197.31
  C 275.01 206.18 301.65 207.82 300.85 194.76
  Q 300.45 188.25 301.89 181.84
  Q 302.02 181.23 301.40 181.22
  L 293.59 181.12
  Q 292.91 181.11 293.00 181.78
  Q 293.89 188.58 293.30 195.43
  Q 293.05 198.34 289.75 198.48
  C 287.16 198.59 282.58 199.09 281.99 196.24
  Q 280.56 189.20 282.60 181.74
  A 0.64 0.64 0.0 0 0 281.95 180.93
  L 274.58 181.21
  Q 274.00 181.23 274.01 181.81
  Q 274.23 189.56 274.59 197.31"
/>
<path stroke="#ffc9af" vector-effect="non-scaling-stroke" d="
  M 313.46 187.81
  Q 312.93 185.08 314.26 182.58
  A 0.88 0.88 0.0 0 0 313.52 181.29
  L 305.52 180.93
  A 0.71 0.71 0.0 0 0 304.78 181.74
  Q 306.31 192.48 304.82 203.24
  A 0.66 0.66 0.0 0 0 305.47 203.99
  L 313.51 203.99
  A 0.70 0.70 0.0 0 0 314.16 203.03
  Q 312.94 199.99 313.56 196.59
  A 1.78 1.78 0.0 0 1 316.62 195.71
  C 318.82 198.10 321.95 199.59 321.99 203.36
  Q 321.99 203.90 322.52 203.98
  C 327.35 204.72 331.61 203.36 336.20 203.83
  Q 345.20 204.74 354.18 203.59
  C 364.98 202.21 367.22 187.68 358.01 182.70
  C 353.00 179.98 340.56 180.58 334.86 181.29
  C 331.04 181.76 327.47 180.63 322.32 181.21
  Q 321.89 181.25 321.68 181.65
  Q 319.19 186.42 313.98 188.12
  Q 313.54 188.26 313.46 187.81"
/>
<path stroke="#ffc9af" vector-effect="non-scaling-stroke" d="
  M 233.94 181.25
  L 225.25 181.25
  Q 224.72 181.25 224.74 181.78
  C 224.81 183.64 224.98 184.59 224.00 186.27
  Q 219.02 194.81 213.91 203.04
  A 0.75 0.74 -73.8 0 0 214.53 204.18
  L 222.87 204.27
  A 0.65 0.64 87.6 0 0 223.52 203.56
  L 223.19 200.36
  A 1.02 1.02 0.0 0 1 224.05 199.25
  Q 229.48 198.41 234.92 199.09
  A 0.67 0.66 -86.6 0 1 235.50 199.75
  L 235.50 203.67
  Q 235.50 204.34 236.17 204.32
  L 245.72 204.08
  Q 246.34 204.06 246.01 203.53
  L 234.69 185.38
  Q 234.42 184.94 234.49 184.43
  L 234.79 182.22
  A 0.86 0.86 0.0 0 0 233.94 181.25"
/>
<path stroke="#c7c7c6" vector-effect="non-scaling-stroke" d="
  M 343.5319 215.6178
  A 2.05 1.22 -5.1 0 0 341.3815 214.5848
  A 2.05 1.22 -5.1 0 0 339.4481 215.9822
  A 2.05 1.22 -5.1 0 0 341.5985 217.0152
  A 2.05 1.22 -5.1 0 0 343.5319 215.6178"
/>
<path stroke="#c7c7c6" vector-effect="non-scaling-stroke" d="
  M 27.75 217.77
  L 27.75 235.75
  Q 27.75 236.25 28.25 236.25
  L 31.25 236.25
  Q 31.75 236.25 31.75 235.75
  L 31.75 217.76
  Q 31.75 217.26 32.25 217.26
  Q 36.84 217.24 41.44 217.22
  Q 43.01 217.21 42.33 215.36
  Q 42.15 214.89 41.65 214.89
  L 17.56 214.69
  A 0.78 0.78 0.0 0 0 16.82 215.22
  Q 16.50 216.17 16.91 216.73
  Q 17.28 217.23 18.37 217.23
  Q 22.81 217.23 27.25 217.26
  Q 27.75 217.27 27.75 217.77"
/>
<path stroke="#cdd3b6" vector-effect="non-scaling-stroke" d="
  M 111.81 222.19
  Q 105.39 219.30 99.59 222.95
  A 0.55 0.55 0.0 0 1 98.75 222.48
  L 98.75 215.38
  Q 98.75 214.70 98.06 214.73
  L 95.40 214.85
  Q 94.81 214.87 94.81 215.46
  Q 94.73 224.30 94.81 233.15
  Q 94.82 235.12 94.92 235.33
  Q 95.33 236.30 96.99 236.63
  A 1.42 1.42 0.0 0 0 98.68 235.29
  L 99.04 225.87
  A 0.83 0.82 72.9 0 1 99.36 225.26
  C 102.03 223.20 111.15 221.33 110.64 227.04
  C 110.39 229.92 110.49 232.85 110.51 235.73
  Q 110.51 236.38 111.15 236.39
  L 113.83 236.44
  Q 114.48 236.45 114.49 235.81
  C 114.53 232.31 115.55 223.87 111.81 222.19"
/>
<path stroke="#c7c7c6" vector-effect="non-scaling-stroke" d="
  M 216.2535 215.1439
  A 0.26 0.26 0.0 0 0 215.9926 214.8848
  L 212.9726 214.8953
  A 0.26 0.26 0.0 0 0 212.7135 215.1562
  L 212.7865 236.0561
  A 0.26 0.26 0.0 0 0 213.0474 236.3152
  L 216.0674 236.3047
  A 0.26 0.26 0.0 0 0 216.3265 236.0438
  L 216.2535 215.1439"
/>
<path stroke="#c7c7c6" vector-effect="non-scaling-stroke" d="
  M 242.73 221.18
  Q 241.79 218.95 244.34 218.06
  C 248.45 216.64 256.18 215.85 259.02 220.27
  Q 259.30 220.71 259.82 220.65
  L 261.99 220.40
  Q 262.75 220.32 262.42 219.63
  C 259.27 213.06 241.13 212.63 238.81 220.54
  A 1.17 1.16 37.0 0 0 238.95 221.50
  C 243.55 228.62 255.57 223.50 259.89 229.70
  Q 260.22 230.17 259.90 230.64
  C 256.54 235.62 246.90 234.03 242.83 231.88
  A 1.43 1.43 0.0 0 1 242.14 231.06
  L 241.46 229.00
  Q 241.29 228.48 240.74 228.49
  L 239.18 228.52
  A 1.54 1.53 68.5 0 0 238.07 231.08
  C 243.56 237.25 252.41 237.46 259.51 234.52
  Q 264.66 232.38 262.53 227.61
  Q 262.31 227.11 261.83 226.84
  C 256.16 223.71 249.87 224.61 243.38 221.83
  A 1.26 1.21 1.1 0 1 242.73 221.18"
/>
<path stroke="#c7c7c6" vector-effect="non-scaling-stroke" d="
  M 153.8300 216.0315
  A 2.19 1.15 0.3 0 0 151.6460 214.8700
  A 2.19 1.15 0.3 0 0 149.4500 216.0085
  A 2.19 1.15 0.3 0 0 151.6340 217.1700
  A 2.19 1.15 0.3 0 0 153.8300 216.0315"
/>
<path stroke="#cdd3b6" vector-effect="non-scaling-stroke" d="
  M 301.34 222.75
  L 301.19 221.26
  A 0.79 0.78 -6.1 0 0 300.32 220.56
  L 298.85 220.72
  Q 298.25 220.79 298.25 221.39
  L 298.25 235.50
  Q 298.25 236.25 299.00 236.25
  L 301.72 236.25
  Q 302.19 236.25 302.19 235.78
  L 302.26 226.27
  A 1.50 1.50 0.0 0 1 302.56 225.37
  Q 304.66 222.47 308.29 223.32
  Q 308.68 223.41 309.07 223.30
  Q 310.37 222.93 310.26 221.75
  A 0.99 0.98 -87.7 0 0 309.45 220.87
  Q 305.11 220.06 302.00 223.00
  Q 301.42 223.54 301.34 222.75"
/>
<path stroke="#cdd3b6" vector-effect="non-scaling-stroke" d="
  M 325.91 234.93
  L 333.45 221.69
  A 0.61 0.61 0.0 0 0 333.05 220.79
  Q 331.46 220.45 330.17 221.20
  Q 329.66 221.50 329.39 222.02
  L 323.84 232.46
  A 0.66 0.65 44.3 0 1 322.69 232.47
  Q 320.01 227.65 317.27 222.60
  C 316.36 220.92 315.08 220.00 313.24 220.79
  A 0.51 0.51 0.0 0 0 312.99 221.51
  L 320.56 234.93
  A 3.08 3.07 -45.0 0 0 325.91 234.93"
/>
<path stroke="#c7c7c6" vector-effect="non-scaling-stroke" d="
  M 379.07 229.25
  L 395.75 229.25
  Q 396.21 229.25 396.19 228.79
  C 395.67 216.78 373.16 218.44 374.47 229.40
  C 375.43 237.39 392.32 238.27 395.38 231.67
  Q 395.65 231.07 395.00 231.01
  Q 392.19 230.72 390.33 232.82
  A 1.53 1.53 0.0 0 1 389.47 233.29
  C 386.47 233.78 379.26 234.16 378.45 230.02
  A 0.65 0.63 84.4 0 1 379.07 229.25"
/>
<path stroke="#c7c7c6" vector-effect="non-scaling-stroke" d="
  M 405.80 223.98
  C 406.99 222.19 411.65 222.85 413.63 223.16
  Q 414.14 223.24 414.53 223.56
  Q 416.25 224.99 418.50 224.57
  A 0.97 0.96 54.3 0 0 418.79 222.78
  Q 411.77 218.81 404.17 221.67
  C 401.08 222.83 400.83 226.92 404.00 227.82
  Q 409.90 229.48 415.52 230.26
  A 1.31 1.31 0.0 0 1 415.80 232.78
  Q 409.12 235.29 404.02 230.99
  A 1.37 1.37 0.0 0 0 401.94 232.72
  C 404.68 237.55 415.50 235.78 419.30 233.69
  Q 419.76 233.44 419.91 232.93
  C 421.75 226.63 410.69 226.41 406.81 226.08
  A 1.36 1.35 -70.8 0 1 405.80 223.98"
/>
<path stroke="#c7c7c6" vector-effect="non-scaling-stroke" d="
  M 57.82 233.43
  C 53.20 234.06 49.46 234.45 46.46 231.26
  A 1.03 1.03 0.0 0 1 47.21 229.52
  L 63.22 229.46
  Q 63.89 229.46 63.83 228.79
  C 63.18 221.21 54.59 219.86 48.73 221.49
  C 40.79 223.70 39.45 232.57 47.85 235.51
  C 52.31 237.06 60.34 236.85 63.01 232.02
  Q 63.27 231.56 62.76 231.43
  Q 59.98 230.74 58.37 233.08
  A 0.81 0.79 -76.7 0 1 57.82 233.43"
/>
<path stroke="#c7c7c6" vector-effect="non-scaling-stroke" d="
  M 125.45 222.58
  Q 124.79 220.56 122.56 220.80
  Q 121.90 220.87 121.89 221.53
  L 121.69 235.59
  Q 121.68 236.25 122.34 236.25
  L 125.22 236.25
  Q 125.69 236.25 125.70 235.78
  Q 125.78 231.64 125.97 227.50
  C 126.19 222.58 132.45 222.53 135.59 223.79
  A 2.92 2.92 0.0 0 1 137.43 226.49
  L 137.52 235.93
  A 0.59 0.59 0.0 0 0 138.18 236.51
  L 141.03 236.18
  Q 141.46 236.13 141.42 235.70
  C 141.11 232.00 142.55 223.88 138.74 221.98
  Q 132.80 219.02 126.07 222.82
  Q 125.61 223.08 125.45 222.58"
/>
<path stroke="#c7c7c6" vector-effect="non-scaling-stroke" d="
  M 273.09 230.18
  A 0.51 0.50 -11.8 0 1 273.55 229.48
  L 290.24 229.29
  Q 290.96 229.28 290.89 228.56
  C 289.94 219.06 272.44 218.31 270.05 225.97
  C 267.93 232.75 272.27 235.00 277.95 235.99
  Q 283.97 237.04 289.20 233.14
  Q 290.10 232.48 289.43 231.59
  Q 288.67 230.58 286.97 231.78
  C 283.40 234.30 275.26 235.26 273.09 230.18"
/>
<path stroke="#c7c7c6" vector-effect="non-scaling-stroke" d="
  M 343.3257 221.5434
  A 0.77 0.77 0.0 0 0 342.5530 220.7761
  L 340.2930 220.7840
  A 0.77 0.77 0.0 0 0 339.5257 221.5567
  L 339.5743 235.4766
  A 0.77 0.77 0.0 0 0 340.3470 236.2439
  L 342.6070 236.2360
  A 0.77 0.77 0.0 0 0 343.3743 235.4633
  L 343.3257 221.5434"
/>
<path stroke="#cdd3b6" vector-effect="non-scaling-stroke" d="
  M 353.79 222.10
  C 348.47 224.36 348.53 231.44 353.02 234.25
  C 357.46 237.03 367.47 237.31 369.93 231.13
  Q 370.27 230.28 369.35 230.32
  L 367.28 230.41
  Q 366.76 230.44 366.50 230.89
  C 363.94 235.35 353.65 234.66 353.50 229.02
  C 353.37 224.33 356.66 222.96 360.69 223.12
  Q 363.96 223.25 366.91 225.71
  A 1.28 1.27 10.7 0 0 368.94 224.33
  C 367.31 219.48 357.13 220.68 353.79 222.10"
/>
<path stroke="#c7c7c6" vector-effect="non-scaling-stroke" d="
  M 84.35 232.89
  C 80.42 235.20 73.25 234.42 72.82 228.82
  C 72.30 222.10 82.22 222.40 85.70 225.27
  Q 87.36 226.64 88.16 225.13
  A 1.42 1.40 28.3 0 0 87.59 223.25
  Q 81.18 219.66 74.73 221.68
  C 69.43 223.34 66.67 230.88 71.92 234.09
  C 77.29 237.38 86.06 237.65 89.41 231.27
  Q 89.65 230.80 89.15 230.64
  Q 86.31 229.68 85.07 232.13
  Q 84.83 232.62 84.35 232.89"
/>
<path stroke="#c7c7c6" vector-effect="non-scaling-stroke" d="
  M 153.4876 221.5367
  A 0.49 0.49 0.0 0 0 152.9967 221.0476
  L 150.2367 221.0524
  A 0.49 0.49 0.0 0 0 149.7476 221.5433
  L 149.7724 235.7633
  A 0.49 0.49 0.0 0 0 150.2633 236.2524
  L 153.0233 236.2476
  A 0.49 0.49 0.0 0 0 153.5124 235.7567
  L 153.4876 221.5367"
/>
<path stroke="#c7c7c6" vector-effect="non-scaling-stroke" d="
  M 169.21 233.76
  C 162.41 233.56 161.41 225.12 167.76 223.59
  Q 172.40 222.47 175.70 224.91
  C 176.93 225.83 177.90 226.38 179.26 225.77
  A 0.69 0.69 0.0 0 0 179.52 224.71
  C 175.86 220.03 166.81 219.74 162.45 223.27
  C 157.63 227.16 159.88 233.27 165.16 235.30
  Q 174.31 238.82 180.69 231.49
  A 0.60 0.60 0.0 0 0 180.23 230.50
  L 177.51 230.50
  A 0.82 0.81 -76.0 0 0 176.79 230.94
  C 175.13 234.06 172.47 233.86 169.21 233.76"
/>
<path stroke="#cdd3b6" vector-effect="non-scaling-stroke" d="
  M 200.62 224.10
  A 1.67 1.67 0.0 0 1 200.31 227.33
  C 195.88 227.95 191.29 227.63 186.90 229.53
  C 183.56 230.98 184.10 234.36 187.44 235.40
  Q 194.02 237.45 200.63 234.71
  A 0.79 0.78 59.4 0 1 201.54 234.95
  Q 202.89 236.65 205.06 236.52
  Q 205.71 236.48 205.62 235.83
  Q 204.93 230.85 204.82 225.82
  C 204.66 218.96 187.97 219.88 185.81 224.96
  A 0.56 0.55 16.6 0 0 186.23 225.72
  Q 188.65 226.13 190.10 224.24
  A 1.37 1.33 -78.4 0 1 190.82 223.75
  Q 195.78 222.42 200.62 224.10"
/>
<path stroke="#c7c7c6" vector-effect="non-scaling-stroke" d="
  M 339.81 243.51
  Q 381.72 243.99 423.55 243.66
  A 0.21 0.20 66.9 0 0 423.69 243.31
  L 423.49 243.11
  Q 423.42 243.04 423.32 243.04
  L 336.75 243.31
  Q 333.79 243.32 336.58 243.80
  C 337.53 243.96 338.88 243.50 339.81 243.51"
/>
<path stroke="#a3a884" vector-effect="non-scaling-stroke" d="
  M 144.96 59.33
  Q 146.49 60.43 146.78 58.56
  A 1.00 1.00 0.0 0 0 144.89 57.98
  L 144.71 58.36
  A 0.78 0.78 0.0 0 0 144.96 59.33"
/>
<path stroke="#dbe0be" vector-effect="non-scaling-stroke" d="
  M 238.59 128.97
  L 236.32 131.60
  A 0.46 0.45 -56.0 0 0 236.45 132.30
  Q 243.29 135.78 249.30 140.61
  A 0.41 0.40 28.4 0 0 249.94 140.42
  L 250.08 140.01
  Q 250.23 139.54 249.76 139.37
  Q 247.96 138.73 247.12 137.04
  A 0.48 0.48 0.0 0 1 247.81 136.43
  Q 249.06 137.26 250.48 137.37
  Q 251.33 137.44 250.90 136.71
  Q 249.70 134.70 247.52 132.71
  Q 247.32 132.53 247.48 132.30
  Q 247.69 132.01 248.00 132.18
  L 252.39 134.58
  A 0.62 0.61 85.4 0 0 253.17 133.66
  L 251.48 131.50
  A 0.36 0.36 0.0 0 1 251.97 130.99
  L 253.36 131.99
  A 0.41 0.40 -78.4 0 0 253.99 131.57
  L 253.78 130.64
  A 0.43 0.43 0.0 0 1 254.31 130.13
  L 255.82 130.55
  A 0.34 0.34 0.0 0 0 256.25 130.22
  Q 256.25 130.02 256.25 129.83
  Q 256.25 129.38 255.94 129.06
  L 255.62 128.75
  A 0.28 0.27 75.6 0 1 255.89 128.29
  L 257.72 128.81
  Q 258.58 129.06 258.33 128.20
  L 257.92 126.81
  A 0.35 0.35 0.0 0 1 258.50 126.47
  Q 259.36 127.35 260.50 127.00
  Q 261.19 126.79 260.85 126.16
  Q 260.04 124.64 258.66 123.59
  A 0.43 0.42 20.3 0 1 258.50 123.26
  Q 258.50 123.11 258.50 122.97
  A 0.23 0.23 0.0 0 1 258.83 122.76
  Q 260.65 123.64 262.50 124.51
  Q 263.16 124.82 263.60 124.72
  Q 264.28 124.58 264.28 123.85
  Q 264.27 123.37 264.73 123.20
  L 268.29 121.87
  Q 268.89 121.65 268.57 121.10
  L 267.69 119.61
  A 0.35 0.35 0.0 0 1 268.13 119.11
  L 269.86 119.82
  A 0.80 0.80 0.0 0 0 270.65 118.45
  L 267.16 115.73"
/>
<path stroke="#a3a884" vector-effect="non-scaling-stroke" d="
  M 267.16 115.73
  Q 266.30 113.16 267.00 110.26
  Q 267.14 109.67 266.55 109.53
  Q 265.16 109.20 264.54 110.33
  A 0.30 0.30 0.0 0 0 264.50 110.48
  L 264.50 112.72
  Q 264.50 113.44 263.79 113.52
  Q 254.78 114.59 247.79 120.37
  A 0.77 0.77 0.0 0 1 246.53 119.76
  L 246.71 112.86
  Q 246.72 112.30 246.16 112.33
  Q 244.56 112.42 244.95 114.07
  Q 246.01 118.58 244.74 122.09
  A 1.65 1.63 83.9 0 1 244.08 122.92
  Q 240.25 125.41 238.59 128.97"
/>
<path stroke="#c7c7c6" vector-effect="non-scaling-stroke" d="
  M 267.16 115.73
  C 258.94 111.65 244.62 123.19 238.59 128.97"
/>
<path stroke="#ffc9af" vector-effect="non-scaling-stroke" d="
  M 415.1815 187.6087
  A 1.32 1.32 0.0 0 0 413.8684 186.2818
  L 405.5485 186.2382
  A 1.32 1.32 0.0 0 0 404.2216 187.5513
  L 404.2185 188.1513
  A 1.32 1.32 0.0 0 0 405.5316 189.4782
  L 413.8515 189.5218
  A 1.32 1.32 0.0 0 0 415.1784 188.2087
  L 415.1815 187.6087"
/>
<path stroke="#ffc9af" vector-effect="non-scaling-stroke" d="
  M 379.33 193.06
  A 0.35 0.35 0.0 0 0 379.63 192.57
  L 378.66 190.51
  A 0.35 0.35 0.0 0 0 378.09 190.42
  L 375.92 192.69
  A 0.35 0.35 0.0 0 0 376.19 193.28
  L 379.33 193.06"
/>
<path stroke="#ffc9af" vector-effect="non-scaling-stroke" d="
  M 36.4392 187.8005
  A 1.18 1.18 0.0 0 0 35.2572 186.6225
  L 26.6972 186.6375
  A 1.18 1.18 0.0 0 0 25.5192 187.8195
  L 25.5208 188.6995
  A 1.18 1.18 0.0 0 0 26.7028 189.8775
  L 35.2628 189.8625
  A 1.18 1.18 0.0 0 0 36.4408 188.6805
  L 36.4392 187.8005"
/>
<path stroke="#ffc9af" vector-effect="non-scaling-stroke" d="
  M 60.05 193.44
  L 62.27 193.36
  A 0.25 0.25 0.0 0 0 62.51 193.10
  L 62.51 192.95
  A 1.94 1.31 87.9 0 0 61.13 191.06
  L 61.03 191.06
  A 1.94 1.31 87.9 0 0 59.79 193.05
  L 59.79 193.20
  A 0.25 0.25 0.0 0 0 60.05 193.44"
/>
<path stroke="#ffc9af" vector-effect="non-scaling-stroke" d="
  M 333.39 182.87
  L 322.10 190.42
  Q 321.51 190.81 322.02 191.31
  L 333.02 201.90
  A 1.44 1.44 0.0 0 0 335.46 200.89
  Q 335.58 192.79 335.28 185.07
  Q 335.23 183.58 334.54 182.95
  A 0.94 0.93 -40.8 0 0 333.39 182.87"
/>
<path stroke="#ffc9af" vector-effect="non-scaling-stroke" d="
  M 343.07 187.65
  L 343.01 197.29
  A 1.19 1.19 0.0 0 0 344.19 198.49
  L 350.55 198.54
  A 5.39 5.34 0.4 0 0 355.98 193.24
  L 355.98 191.90
  A 5.39 5.34 0.4 0 0 350.63 186.52
  L 344.27 186.47
  A 1.19 1.19 0.0 0 0 343.07 187.65"
/>
<path stroke="#ffc9af" vector-effect="non-scaling-stroke" d="
  M 228.34 191.41
  L 227.33 192.74
  A 0.45 0.45 0.0 0 0 227.64 193.46
  Q 228.69 193.57 229.67 193.52
  Q 230.79 193.46 230.91 192.84
  Q 231.06 192.13 230.12 190.89
  Q 229.50 190.07 228.73 190.75
  Q 228.65 190.81 228.58 191.00
  Q 228.49 191.22 228.34 191.41"
/>
<path stroke="#c7c7c6" vector-effect="non-scaling-stroke" d="
  M 378.27 226.66
  L 392.13 226.34
  A 0.16 0.16 0.0 0 0 392.28 226.18
  L 392.28 226.10
  A 6.99 3.22 -1.3 0 0 385.22 223.04
  L 385.02 223.04
  A 6.99 3.22 -1.3 0 0 378.11 226.42
  L 378.11 226.50
  A 0.16 0.16 0.0 0 0 378.27 226.66"
/>
<path stroke="#c7c7c6" vector-effect="non-scaling-stroke" d="
  M 46.44 226.77
  L 59.84 226.81
  A 0.17 0.17 0.0 0 0 60.01 226.64
  L 60.01 226.58
  A 6.24 3.09 0.2 0 0 53.79 223.47
  L 52.53 223.47
  A 6.24 3.09 0.2 0 0 46.28 226.54
  L 46.27 226.60
  A 0.17 0.17 0.0 0 0 46.44 226.77"
/>
<path stroke="#c7c7c6" vector-effect="non-scaling-stroke" d="
  M 273.55 226.81
  L 286.67 226.67
  A 0.16 0.16 0.0 0 0 286.83 226.51
  L 286.83 226.41
  A 5.69 3.24 -0.6 0 0 281.10 223.23
  L 279.04 223.25
  A 5.69 3.24 -0.6 0 0 273.39 226.55
  L 273.39 226.65
  A 0.16 0.16 0.0 0 0 273.55 226.81"
/>
<path stroke="#cdd3b6" vector-effect="non-scaling-stroke" d="
  M 201.26 229.21
  L 188.32 230.66
  A 0.20 0.20 0.0 0 0 188.14 230.88
  L 188.17 231.15
  A 4.76 3.53 -6.4 0 0 193.30 234.12
  L 197.17 233.69
  A 4.76 3.53 -6.4 0 0 201.51 229.65
  L 201.48 229.38
  A 0.20 0.20 0.0 0 0 201.26 229.21"
/>
</g>
<path fill="#ffffff" d="
  M 0.00 0.00
  L 453.00 0.00
  L 453.00 244.00
  L 0.00 244.00
  L 0.00 0.00
  Z
  M 135.89 60.49
  Q 134.44 61.78 133.35 60.91
  Q 125.03 54.30 115.76 50.02
  A 0.45 0.45 0.0 0 1 116.00 49.16
  C 120.13 49.58 124.51 48.53 127.59 48.64
  Q 130.74 48.76 134.39 49.45
  A 0.14 0.14 0.0 0 0 134.49 49.19
  L 130.96 47.11
  Q 130.52 46.85 130.86 46.47
  Q 131.29 45.99 132.01 46.19
  Q 134.68 46.90 136.98 46.52
  A 0.36 0.36 0.0 0 0 137.01 45.81
  L 133.87 44.99
  Q 133.50 44.89 133.50 44.51
  L 133.50 44.15
  A 0.44 0.44 0.0 0 1 134.01 43.72
  L 145.75 45.69
  C 145.94 50.15 149.16 49.55 151.74 47.95
  Q 158.64 43.67 165.48 39.29
  C 169.47 36.74 171.64 34.33 171.63 29.68
  C 171.61 26.11 169.51 24.04 165.98 23.99
  C 161.48 23.94 146.68 22.09 145.77 27.99
  Q 145.33 30.80 145.48 41.92
  Q 145.50 43.60 144.26 43.58
  C 132.58 40.56 125.27 39.44 114.85 42.17
  A 0.83 0.83 0.0 0 1 114.01 40.83
  Q 118.47 35.63 119.35 28.64
  C 119.94 23.90 116.35 17.53 114.20 13.30
  A 0.61 0.61 0.0 0 0 113.06 13.69
  Q 113.99 18.49 114.92 23.76
  Q 114.96 24.00 114.84 24.19
  A 0.32 0.32 0.0 0 1 114.28 24.18
  L 110.88 18.00
  A 0.47 0.47 0.0 0 0 110.02 18.36
  C 110.87 21.33 112.05 22.59 111.20 25.93
  Q 111.09 26.34 110.89 25.97
  L 108.20 21.07
  A 0.34 0.34 0.0 0 0 107.56 21.21
  C 107.33 24.18 108.90 28.65 108.12 31.35
  A 0.26 0.26 0.0 0 1 107.61 31.32
  Q 106.87 26.94 106.25 25.81
  Q 105.89 25.16 105.37 25.25
  Q 104.99 25.33 105.06 25.71
  L 106.73 35.45
  A 0.53 0.53 0.0 0 1 105.72 35.75
  Q 104.54 32.95 102.65 30.34
  Q 102.49 30.11 102.14 30.29
  A 0.55 0.55 0.0 0 0 101.90 31.02
  Q 104.02 35.33 103.21 40.08
  Q 102.98 41.47 102.43 40.17
  L 100.26 34.95
  Q 100.17 34.75 99.96 34.75
  Q 99.83 34.75 99.69 34.74
  Q 99.29 34.71 99.39 35.10
  Q 100.35 39.17 100.29 41.04
  Q 100.15 45.94 98.92 41.19
  C 94.91 25.71 84.20 20.40 68.96 18.53
  Q 67.95 18.41 68.88 18.81
  L 79.13 23.22
  A 0.58 0.58 0.0 0 1 78.76 24.31
  Q 76.16 23.68 73.26 23.18
  Q 72.48 23.04 71.89 23.33
  Q 71.44 23.54 71.91 23.71
  L 80.50 26.89
  A 0.40 0.40 0.0 0 1 80.37 27.67
  Q 77.86 27.73 75.23 26.83
  Q 74.17 26.47 73.60 26.85
  Q 73.12 27.17 73.64 27.42
  L 83.26 32.01
  Q 83.81 32.26 83.38 32.68
  Q 83.03 33.03 82.57 32.73
  Q 79.68 30.84 76.76 31.40
  Q 76.08 31.53 76.72 31.80
  L 86.19 35.77
  A 0.37 0.36 -30.9 0 1 86.01 36.47
  L 79.94 35.95
  A 0.19 0.19 0.0 0 0 79.84 36.31
  L 88.80 40.42
  A 0.43 0.43 0.0 0 1 88.54 41.24
  L 83.03 40.17
  A 0.37 0.37 0.0 0 0 82.80 40.86
  L 91.16 45.01
  A 0.48 0.48 0.0 0 1 90.76 45.88
  C 81.20 41.82 71.53 37.92 60.96 41.15
  C 57.61 42.18 54.18 44.32 51.00 46.05
  Q 48.45 47.43 51.30 46.87
  Q 56.19 45.90 60.92 44.30
  Q 61.30 44.17 61.58 44.46
  L 61.82 44.69
  A 0.40 0.40 0.0 0 1 61.77 45.29
  L 58.45 47.66
  A 0.29 0.29 0.0 0 0 58.73 48.17
  Q 61.66 47.02 64.63 46.16
  Q 65.08 46.03 65.38 46.13
  Q 65.74 46.25 65.91 46.55
  Q 66.15 46.96 65.74 47.19
  L 61.20 49.66
  A 0.33 0.33 0.0 0 0 61.43 50.27
  Q 65.23 49.40 68.99 48.47
  Q 69.49 48.35 69.65 48.81
  Q 69.82 49.31 69.35 49.56
  L 68.67 49.93
  A 0.25 0.24 28.5 0 0 68.81 50.39
  Q 72.22 50.11 76.05 48.76
  Q 76.94 48.45 77.34 49.25
  Q 77.57 49.71 77.13 49.98
  L 74.25 51.72
  A 0.38 0.37 22.2 0 0 74.54 52.40
  L 82.30 50.48
  A 0.53 0.53 0.0 0 1 82.76 51.40
  L 80.44 53.26
  A 0.55 0.55 0.0 0 0 80.62 54.21
  L 80.99 54.33
  A 0.39 0.39 0.0 0 1 81.00 55.07
  C 71.33 58.68 63.32 66.05 63.86 76.49
  A 0.65 0.65 0.0 0 0 65.15 76.57
  Q 65.68 73.47 67.44 70.83
  A 0.72 0.71 61.9 0 1 68.75 71.23
  L 68.75 73.23
  Q 68.75 75.40 69.60 73.41
  Q 70.90 70.38 72.18 69.48
  A 0.52 0.52 0.0 0 1 73.00 69.95
  L 72.69 73.60
  A 0.22 0.22 0.0 0 0 73.10 73.73
  L 76.83 67.30
  Q 77.15 66.74 77.68 67.12
  L 78.56 67.74
  Q 79.07 68.09 79.32 67.53
  L 81.18 63.41
  A 0.79 0.79 0.0 0 1 82.69 63.70
  L 82.78 66.26
  A 0.29 0.29 0.0 0 0 83.34 66.34
  Q 84.25 63.66 85.92 61.46
  A 0.95 0.65 -18.6 0 1 87.48 61.90
  Q 87.05 62.46 87.30 63.04
  A 0.86 0.83 48.5 0 1 87.27 63.79
  Q 82.83 71.62 84.20 80.23
  C 84.86 84.36 88.08 87.95 90.46 91.50
  A 0.33 0.32 16.9 0 0 91.03 91.20
  Q 89.67 88.03 88.49 84.51
  Q 88.22 83.69 88.98 83.04
  Q 89.27 82.79 89.56 83.03
  L 91.33 84.50
  A 0.32 0.31 88.2 0 0 91.76 84.04
  Q 90.09 82.23 90.82 80.02
  A 0.70 0.70 0.0 0 1 92.04 79.82
  L 94.09 82.58
  A 0.25 0.25 0.0 0 0 94.54 82.37
  L 93.02 76.16
  A 0.56 0.55 89.6 0 1 93.68 75.48
  Q 94.24 75.61 94.54 75.28
  Q 94.85 74.94 94.65 74.20
  Q 94.05 71.98 93.46 69.81
  A 0.66 0.66 0.0 0 1 94.59 69.20
  L 97.19 72.10
  C 98.38 73.53 99.37 74.63 99.58 76.60
  C 100.29 83.26 101.20 89.81 101.36 96.49
  C 101.97 122.79 102.78 145.33 99.55 174.55
  L 16.51 174.51
  Q 15.87 174.51 15.85 175.14
  L 15.73 177.80
  A 0.51 0.50 -88.9 0 0 16.23 178.33
  L 100.24 178.19
  L 105.45 178.24
  A 2.39 2.38 5.1 0 0 107.83 176.26
  Q 108.80 170.53 108.91 165.50
  C 109.50 138.00 110.60 113.81 107.81 83.35
  C 107.52 80.14 108.10 77.37 108.78 74.31
  A 0.73 0.72 -64.9 0 0 108.52 73.58
  L 106.90 72.31
  Q 106.63 72.10 106.57 71.77
  Q 106.19 69.43 106.94 67.31
  L 111.01 78.38
  A 0.41 0.41 0.0 0 0 111.77 78.40
  L 112.47 76.82
  A 0.58 0.58 0.0 0 1 113.58 77.02
  L 113.82 81.30
  A 0.29 0.28 -26.8 0 0 114.32 81.46
  L 115.47 80.10
  A 0.50 0.49 -44.7 0 1 116.22 80.10
  Q 117.13 81.19 116.88 82.45
  Q 116.79 82.86 116.81 83.28
  L 117.06 88.00
  Q 117.08 88.32 117.17 88.02
  Q 118.34 84.08 119.08 79.73
  C 119.59 76.76 117.50 70.09 116.07 67.37
  Q 113.81 63.05 113.05 58.13
  A 0.46 0.46 0.0 0 1 113.80 57.72
  L 118.79 62.01
  A 0.28 0.28 0.0 0 0 119.22 61.67
  L 118.31 59.87
  Q 117.94 59.15 118.63 59.58
  L 127.71 65.21
  Q 125.28 66.30 124.67 67.38
  A 0.95 0.95 0.0 0 1 124.31 67.74
  L 118.97 70.96
  A 0.38 0.38 0.0 0 0 119.18 71.67
  L 134.05 71.39
  Q 136.06 71.77 138.08 70.44
  A 0.57 0.53 31.1 0 1 138.46 70.36
  L 139.69 70.56
  Q 140.20 70.64 140.33 70.14
  Q 140.65 68.96 142.11 67.94
  Q 178.16 46.34 214.16 24.28
  C 222.06 19.44 224.07 18.54 232.82 23.83
  C 258.45 39.33 283.83 55.27 309.69 70.38
  C 313.26 72.47 323.85 71.65 328.29 71.80
  A 0.53 0.52 -28.0 0 0 328.59 70.83
  L 224.71 6.08
  A 1.29 1.27 -44.7 0 0 223.36 6.08
  L 135.89 60.49
  Z
  M 236.81 29.10
  C 234.10 27.39 228.09 23.50 225.14 26.06
  A 1.24 1.22 -20.7 0 0 224.71 26.99
  L 224.83 84.98
  Q 224.83 85.84 225.47 85.26
  Q 229.64 81.48 234.95 79.51
  A 1.78 1.74 -82.1 0 0 235.79 78.86
  C 238.05 75.59 238.62 71.62 241.09 68.82
  C 249.87 58.86 265.86 54.64 278.58 55.31
  A 0.45 0.45 0.0 0 0 278.82 54.47
  C 270.68 49.93 261.90 43.85 255.08 39.86
  C 248.97 36.29 242.97 32.97 236.81 29.10
  Z
  M 197.31 90.35
  L 195.57 89.64
  Q 195.07 89.43 194.60 89.71
  Q 184.22 95.91 173.70 89.88
  A 1.09 1.08 -45.3 0 0 172.60 89.89
  L 154.48 100.62
  A 0.76 0.76 0.0 0 0 154.75 102.03
  C 162.93 103.27 171.89 102.03 180.25 102.44
  Q 189.18 102.88 216.50 102.30
  C 220.57 102.21 221.70 98.94 221.72 95.23
  Q 221.88 62.37 221.71 29.50
  Q 221.70 27.98 221.77 27.07
  A 0.95 0.94 -72.1 0 0 221.33 26.20
  Q 219.35 24.93 217.20 26.20
  Q 185.19 45.12 153.28 64.22
  C 144.26 69.61 145.84 80.39 146.30 91.07
  Q 146.39 93.00 146.64 93.49
  Q 147.96 96.07 150.15 94.76
  L 167.92 84.12
  Q 168.39 83.84 168.23 83.32
  Q 164.89 72.56 174.45 67.46
  Q 174.95 67.19 175.14 66.66
  Q 177.06 61.24 182.98 60.45
  Q 183.62 60.36 184.08 60.81
  L 187.88 64.56
  A 0.55 0.55 0.0 0 0 188.56 64.64
  L 199.55 58.08
  A 0.67 0.66 51.0 0 1 200.35 58.17
  L 202.44 60.14
  A 0.71 0.71 0.0 0 1 202.33 61.26
  L 191.54 67.94
  A 0.76 0.75 -36.4 0 0 191.36 69.07
  L 197.44 76.22
  A 0.64 0.63 -35.7 0 0 198.26 76.35
  L 209.21 69.69
  A 0.82 0.82 0.0 0 1 210.17 69.77
  L 212.30 71.62
  A 0.84 0.84 0.0 0 1 212.20 72.96
  L 201.84 79.54
  A 1.08 1.07 -35.4 0 0 201.57 81.11
  L 204.52 84.82
  A 0.93 0.93 0.0 0 1 204.31 86.18
  L 198.14 90.26
  A 0.91 0.90 38.6 0 1 197.31 90.35
  Z
  M 261.42 63.42
  C 258.71 67.59 265.40 73.62 268.28 75.68
  Q 281.28 84.99 294.43 94.10
  Q 296.63 95.63 299.41 95.68
  A 1.79 1.79 0.0 0 0 301.24 93.88
  L 301.18 71.08
  Q 301.18 70.54 300.88 70.09
  C 297.42 64.90 287.89 58.23 281.30 58.12
  C 276.48 58.04 264.35 58.90 261.42 63.42
  Z
  M 234.94 92.95
  L 225.63 87.33
  Q 225.15 87.04 225.09 87.59
  Q 224.38 93.41 225.20 99.23
  A 1.38 1.34 -73.7 0 0 225.64 100.06
  C 228.96 102.99 231.94 102.64 236.08 102.68
  Q 261.54 102.94 287.12 102.54
  A 0.71 0.70 -26.9 0 0 287.54 101.27
  C 278.20 94.27 268.74 86.68 258.06 81.71
  C 253.50 79.58 243.87 78.03 241.73 84.23
  Q 240.28 88.43 238.20 92.10
  A 2.36 2.35 -59.5 0 1 234.94 92.95
  Z
  M 187.74 117.56
  A 0.99 0.99 0.0 0 1 188.10 119.28
  L 180.99 125.15
  A 0.82 0.81 64.4 0 0 180.72 125.94
  L 182.56 134.12
  A 0.95 0.95 0.0 0 0 183.21 134.82
  L 193.08 137.77
  A 0.78 0.78 0.0 0 0 193.72 137.68
  Q 197.14 135.49 200.37 132.95
  C 204.29 129.86 204.50 135.23 204.70 137.68
  Q 204.74 138.13 204.37 138.40
  L 190.26 149.08
  Q 189.82 149.41 189.27 149.35
  C 185.29 148.90 181.82 146.89 177.91 146.74
  A 1.64 1.60 29.7 0 0 176.99 146.98
  Q 166.45 153.47 157.55 162.06
  A 1.11 1.11 0.0 0 0 157.98 163.92
  Q 160.87 164.84 164.50 164.83
  Q 189.64 164.79 214.77 164.73
  C 220.17 164.71 222.60 161.68 222.53 156.27
  Q 222.28 134.44 222.47 112.57
  C 222.52 107.05 219.62 105.11 214.31 105.08
  Q 183.62 104.89 152.95 105.07
  C 146.69 105.11 145.73 108.83 145.74 114.39
  Q 145.75 130.85 145.76 147.31
  C 145.77 148.41 146.12 149.66 146.36 150.74
  Q 146.46 151.22 146.91 151.42
  C 150.48 153.07 159.83 144.77 163.62 141.56
  Q 166.65 139.00 166.98 138.55
  C 168.73 136.14 167.04 131.13 166.19 128.31
  A 0.82 0.81 61.8 0 1 166.44 127.46
  Q 172.69 122.12 179.31 117.27
  C 181.97 115.32 185.16 116.82 187.74 117.56
  Z
  M 225.24 159.08
  Q 226.43 164.21 232.26 164.22
  Q 259.72 164.27 289.25 164.29
  Q 290.76 164.29 289.65 163.27
  C 285.99 159.92 281.33 155.74 276.30 154.19
  Q 270.48 152.91 265.49 156.15
  A 1.01 1.00 49.5 0 1 264.28 156.05
  Q 259.98 152.17 255.83 148.12
  C 251.47 143.86 252.84 140.77 257.23 137.26
  C 261.99 133.45 272.35 122.12 278.97 127.37
  Q 284.44 131.71 288.86 136.58
  A 1.29 1.29 0.0 0 1 288.83 138.35
  C 283.34 144.00 285.51 148.74 290.63 153.65
  Q 295.27 158.09 300.07 162.61
  A 0.40 0.40 0.0 0 0 300.74 162.32
  Q 301.09 137.00 300.65 111.50
  Q 300.56 106.29 295.30 105.71
  C 289.34 105.04 282.25 105.53 278.09 105.48
  Q 256.06 105.21 234.06 105.51
  C 225.09 105.63 225.32 108.67 225.31 116.87
  Q 225.29 137.89 225.24 159.08
  Z
  M 421.6579 175.0571
  A 0.70 0.70 0.0 0 0 420.9566 174.3584
  L 304.4768 174.5617
  A 0.70 0.70 0.0 0 0 303.7780 175.2629
  L 303.7821 177.6029
  A 0.70 0.70 0.0 0 0 304.4834 178.3016
  L 420.9632 178.0983
  A 0.70 0.70 0.0 0 0 421.6620 177.3971
  L 421.6579 175.0571
  Z
  M 144.50 183.50
  L 144.50 185.50
  A 1.25 1.25 0.0 0 0 145.75 186.75
  L 153.80 186.75
  Q 154.60 186.75 154.56 187.55
  L 153.78 203.64
  Q 153.75 204.27 154.38 204.26
  L 162.14 204.11
  Q 162.87 204.10 162.72 203.39
  Q 161.10 195.41 161.84 187.26
  Q 161.90 186.62 162.53 186.63
  L 170.72 186.76
  Q 171.27 186.77 171.30 186.22
  L 171.52 181.68
  Q 171.55 181.12 170.99 181.12
  L 135.22 181.26
  Q 134.52 181.26 134.65 181.95
  Q 136.68 192.77 134.53 203.55
  A 0.58 0.57 -84.2 0 0 135.09 204.24
  L 142.95 204.25
  A 0.57 0.56 87.2 0 0 143.51 203.63
  Q 142.49 193.73 143.27 183.82
  A 0.72 0.54 -51.2 0 1 144.50 183.50
  Z
  M 395.21 202.07
  Q 393.76 202.36 392.64 200.55
  C 390.57 197.20 382.54 185.64 383.30 182.18
  A 1.04 1.04 0.0 0 0 382.31 180.91
  L 374.06 180.71
  Q 373.45 180.70 373.41 181.31
  C 372.96 187.92 366.28 196.98 362.66 202.45
  A 0.93 0.93 0.0 0 0 363.43 203.89
  L 371.74 204.02
  A 0.60 0.60 0.0 0 0 372.29 203.15
  C 369.12 197.10 378.59 198.78 381.22 198.73
  C 383.77 198.69 384.99 200.14 383.73 202.54
  A 0.96 0.96 0.0 0 0 384.59 203.94
  L 403.96 203.69
  Q 404.61 203.68 404.58 203.03
  L 404.23 195.99
  Q 404.21 195.55 404.63 195.42
  C 409.52 193.97 412.98 199.22 414.17 203.28
  Q 414.33 203.81 414.88 203.80
  L 423.14 203.64
  A 0.94 0.94 0.0 0 0 423.82 202.07
  L 417.68 195.32
  Q 417.19 194.79 417.86 194.50
  C 422.30 192.59 424.61 188.87 422.16 184.80
  C 418.57 178.85 402.51 180.67 396.36 180.80
  Q 395.99 180.81 396.00 181.17
  L 396.34 200.67
  A 1.41 1.40 -6.2 0 1 395.21 202.07
  Z
  M 108.62 201.55
  A 0.60 0.60 0.0 0 1 107.43 201.43
  L 107.67 181.78
  Q 107.68 181.39 107.29 181.38
  L 100.31 181.20
  Q 99.24 181.17 99.49 182.21
  Q 100.68 187.27 100.16 192.51
  A 0.45 0.45 0.0 0 1 99.42 192.81
  L 89.05 184.07
  Q 88.64 183.73 88.74 183.21
  Q 88.89 182.43 88.49 181.76
  Q 88.22 181.30 87.69 181.30
  L 79.56 181.23
  Q 78.92 181.22 79.00 181.85
  Q 80.07 190.77 79.56 199.74
  Q 79.47 201.48 78.78 201.94
  Q 77.34 202.92 76.43 201.43
  L 66.42 185.17
  Q 66.12 184.69 66.20 184.13
  L 66.50 181.92
  A 0.60 0.60 0.0 0 0 65.91 181.23
  L 56.58 181.20
  A 0.61 0.61 0.0 0 0 55.99 181.98
  L 56.59 184.10
  Q 56.72 184.58 56.47 185.01
  Q 52.45 191.94 48.40 198.87
  Q 47.48 200.44 46.55 201.14
  A 1.84 1.83 48.7 0 1 44.14 200.98
  L 38.98 195.81
  A 0.46 0.46 0.0 0 1 39.08 195.09
  C 44.29 192.17 47.30 186.76 41.10 182.70
  C 36.87 179.92 22.37 181.06 17.47 181.34
  Q 16.91 181.37 16.97 181.93
  Q 18.06 192.45 17.14 203.02
  Q 17.03 204.27 18.29 204.26
  L 25.55 204.22
  A 0.73 0.73 0.0 0 0 26.24 203.25
  Q 25.05 199.79 25.60 196.14
  Q 25.65 195.75 26.04 195.75
  L 29.52 195.75
  Q 30.03 195.75 30.44 196.05
  Q 34.54 199.06 35.43 203.95
  Q 35.51 204.38 35.94 204.38
  L 54.84 204.19
  A 0.66 0.65 -89.6 0 0 55.49 203.54
  L 55.51 199.75
  A 0.50 0.50 0.0 0 1 55.95 199.25
  C 59.21 198.90 69.96 197.57 67.03 202.75
  A 1.00 0.99 14.7 0 0 67.90 204.23
  L 86.89 204.16
  A 0.66 0.66 0.0 0 0 87.52 203.35
  Q 86.24 197.90 86.87 192.30
  A 0.37 0.37 0.0 0 1 87.47 192.06
  L 98.37 201.05
  A 1.09 1.09 0.0 0 1 98.76 201.84
  C 98.91 205.48 105.52 204.51 107.93 203.46
  C 109.89 202.61 110.99 202.56 113.22 203.26
  C 119.33 205.17 129.72 204.95 129.94 196.07
  Q 130.11 188.98 130.52 181.83
  Q 130.56 181.25 129.97 181.25
  L 122.35 181.25
  Q 121.95 181.25 121.96 181.65
  L 122.35 197.13
  A 1.16 1.15 81.6 0 1 121.51 198.27
  Q 116.42 199.70 112.44 196.53
  A 0.77 0.77 0.0 0 0 111.47 196.54
  Q 109.19 198.49 108.62 201.55
  Z
  M 200.86 188.25
  L 200.49 203.71
  A 0.53 0.53 0.0 0 0 201.02 204.25
  L 208.21 204.25
  Q 208.73 204.25 208.72 203.73
  L 208.41 187.57
  Q 208.40 186.94 209.02 186.83
  Q 212.54 186.17 216.06 186.81
  A 1.32 1.32 0.0 0 0 217.62 185.48
  L 217.52 181.67
  A 0.52 0.52 0.0 0 0 217.00 181.16
  L 191.92 181.16
  A 0.42 0.42 0.0 0 0 191.50 181.58
  L 191.50 186.01
  A 0.82 0.82 0.0 0 0 192.47 186.82
  Q 196.15 186.13 199.80 186.90
  A 1.34 1.34 0.0 0 1 200.86 188.25
  Z
  M 255.35 198.20
  L 255.95 181.60
  Q 255.96 181.30 255.67 181.29
  L 247.97 181.15
  A 0.73 0.73 0.0 0 0 247.23 181.95
  Q 248.30 192.81 247.32 203.68
  Q 247.28 204.22 247.82 204.22
  L 271.84 204.26
  Q 272.46 204.27 272.49 203.66
  L 272.76 199.30
  A 0.65 0.65 0.0 0 0 272.10 198.61
  L 255.95 198.81
  Q 255.33 198.82 255.35 198.20
  Z
  M 274.59 197.31
  C 275.01 206.18 301.65 207.82 300.85 194.76
  Q 300.45 188.25 301.89 181.84
  Q 302.02 181.23 301.40 181.22
  L 293.59 181.12
  Q 292.91 181.11 293.00 181.78
  Q 293.89 188.58 293.30 195.43
  Q 293.05 198.34 289.75 198.48
  C 287.16 198.59 282.58 199.09 281.99 196.24
  Q 280.56 189.20 282.60 181.74
  A 0.64 0.64 0.0 0 0 281.95 180.93
  L 274.58 181.21
  Q 274.00 181.23 274.01 181.81
  Q 274.23 189.56 274.59 197.31
  Z
  M 313.46 187.81
  Q 312.93 185.08 314.26 182.58
  A 0.88 0.88 0.0 0 0 313.52 181.29
  L 305.52 180.93
  A 0.71 0.71 0.0 0 0 304.78 181.74
  Q 306.31 192.48 304.82 203.24
  A 0.66 0.66 0.0 0 0 305.47 203.99
  L 313.51 203.99
  A 0.70 0.70 0.0 0 0 314.16 203.03
  Q 312.94 199.99 313.56 196.59
  A 1.78 1.78 0.0 0 1 316.62 195.71
  C 318.82 198.10 321.95 199.59 321.99 203.36
  Q 321.99 203.90 322.52 203.98
  C 327.35 204.72 331.61 203.36 336.20 203.83
  Q 345.20 204.74 354.18 203.59
  C 364.98 202.21 367.22 187.68 358.01 182.70
  C 353.00 179.98 340.56 180.58 334.86 181.29
  C 331.04 181.76 327.47 180.63 322.32 181.21
  Q 321.89 181.25 321.68 181.65
  Q 319.19 186.42 313.98 188.12
  Q 313.54 188.26 313.46 187.81
  Z
  M 233.94 181.25
  L 225.25 181.25
  Q 224.72 181.25 224.74 181.78
  C 224.81 183.64 224.98 184.59 224.00 186.27
  Q 219.02 194.81 213.91 203.04
  A 0.75 0.74 -73.8 0 0 214.53 204.18
  L 222.87 204.27
  A 0.65 0.64 87.6 0 0 223.52 203.56
  L 223.19 200.36
  A 1.02 1.02 0.0 0 1 224.05 199.25
  Q 229.48 198.41 234.92 199.09
  A 0.67 0.66 -86.6 0 1 235.50 199.75
  L 235.50 203.67
  Q 235.50 204.34 236.17 204.32
  L 245.72 204.08
  Q 246.34 204.06 246.01 203.53
  L 234.69 185.38
  Q 234.42 184.94 234.49 184.43
  L 234.79 182.22
  A 0.86 0.86 0.0 0 0 233.94 181.25
  Z
  M 343.5319 215.6178
  A 2.05 1.22 -5.1 0 0 341.3815 214.5848
  A 2.05 1.22 -5.1 0 0 339.4481 215.9822
  A 2.05 1.22 -5.1 0 0 341.5985 217.0152
  A 2.05 1.22 -5.1 0 0 343.5319 215.6178
  Z
  M 27.75 217.77
  L 27.75 235.75
  Q 27.75 236.25 28.25 236.25
  L 31.25 236.25
  Q 31.75 236.25 31.75 235.75
  L 31.75 217.76
  Q 31.75 217.26 32.25 217.26
  Q 36.84 217.24 41.44 217.22
  Q 43.01 217.21 42.33 215.36
  Q 42.15 214.89 41.65 214.89
  L 17.56 214.69
  A 0.78 0.78 0.0 0 0 16.82 215.22
  Q 16.50 216.17 16.91 216.73
  Q 17.28 217.23 18.37 217.23
  Q 22.81 217.23 27.25 217.26
  Q 27.75 217.27 27.75 217.77
  Z
  M 111.81 222.19
  Q 105.39 219.30 99.59 222.95
  A 0.55 0.55 0.0 0 1 98.75 222.48
  L 98.75 215.38
  Q 98.75 214.70 98.06 214.73
  L 95.40 214.85
  Q 94.81 214.87 94.81 215.46
  Q 94.73 224.30 94.81 233.15
  Q 94.82 235.12 94.92 235.33
  Q 95.33 236.30 96.99 236.63
  A 1.42 1.42 0.0 0 0 98.68 235.29
  L 99.04 225.87
  A 0.83 0.82 72.9 0 1 99.36 225.26
  C 102.03 223.20 111.15 221.33 110.64 227.04
  C 110.39 229.92 110.49 232.85 110.51 235.73
  Q 110.51 236.38 111.15 236.39
  L 113.83 236.44
  Q 114.48 236.45 114.49 235.81
  C 114.53 232.31 115.55 223.87 111.81 222.19
  Z
  M 216.2535 215.1439
  A 0.26 0.26 0.0 0 0 215.9926 214.8848
  L 212.9726 214.8953
  A 0.26 0.26 0.0 0 0 212.7135 215.1562
  L 212.7865 236.0561
  A 0.26 0.26 0.0 0 0 213.0474 236.3152
  L 216.0674 236.3047
  A 0.26 0.26 0.0 0 0 216.3265 236.0438
  L 216.2535 215.1439
  Z
  M 242.73 221.18
  Q 241.79 218.95 244.34 218.06
  C 248.45 216.64 256.18 215.85 259.02 220.27
  Q 259.30 220.71 259.82 220.65
  L 261.99 220.40
  Q 262.75 220.32 262.42 219.63
  C 259.27 213.06 241.13 212.63 238.81 220.54
  A 1.17 1.16 37.0 0 0 238.95 221.50
  C 243.55 228.62 255.57 223.50 259.89 229.70
  Q 260.22 230.17 259.90 230.64
  C 256.54 235.62 246.90 234.03 242.83 231.88
  A 1.43 1.43 0.0 0 1 242.14 231.06
  L 241.46 229.00
  Q 241.29 228.48 240.74 228.49
  L 239.18 228.52
  A 1.54 1.53 68.5 0 0 238.07 231.08
  C 243.56 237.25 252.41 237.46 259.51 234.52
  Q 264.66 232.38 262.53 227.61
  Q 262.31 227.11 261.83 226.84
  C 256.16 223.71 249.87 224.61 243.38 221.83
  A 1.26 1.21 1.1 0 1 242.73 221.18
  Z
  M 153.8300 216.0315
  A 2.19 1.15 0.3 0 0 151.6460 214.8700
  A 2.19 1.15 0.3 0 0 149.4500 216.0085
  A 2.19 1.15 0.3 0 0 151.6340 217.1700
  A 2.19 1.15 0.3 0 0 153.8300 216.0315
  Z
  M 301.34 222.75
  L 301.19 221.26
  A 0.79 0.78 -6.1 0 0 300.32 220.56
  L 298.85 220.72
  Q 298.25 220.79 298.25 221.39
  L 298.25 235.50
  Q 298.25 236.25 299.00 236.25
  L 301.72 236.25
  Q 302.19 236.25 302.19 235.78
  L 302.26 226.27
  A 1.50 1.50 0.0 0 1 302.56 225.37
  Q 304.66 222.47 308.29 223.32
  Q 308.68 223.41 309.07 223.30
  Q 310.37 222.93 310.26 221.75
  A 0.99 0.98 -87.7 0 0 309.45 220.87
  Q 305.11 220.06 302.00 223.00
  Q 301.42 223.54 301.34 222.75
  Z
  M 325.91 234.93
  L 333.45 221.69
  A 0.61 0.61 0.0 0 0 333.05 220.79
  Q 331.46 220.45 330.17 221.20
  Q 329.66 221.50 329.39 222.02
  L 323.84 232.46
  A 0.66 0.65 44.3 0 1 322.69 232.47
  Q 320.01 227.65 317.27 222.60
  C 316.36 220.92 315.08 220.00 313.24 220.79
  A 0.51 0.51 0.0 0 0 312.99 221.51
  L 320.56 234.93
  A 3.08 3.07 -45.0 0 0 325.91 234.93
  Z
  M 379.07 229.25
  L 395.75 229.25
  Q 396.21 229.25 396.19 228.79
  C 395.67 216.78 373.16 218.44 374.47 229.40
  C 375.43 237.39 392.32 238.27 395.38 231.67
  Q 395.65 231.07 395.00 231.01
  Q 392.19 230.72 390.33 232.82
  A 1.53 1.53 0.0 0 1 389.47 233.29
  C 386.47 233.78 379.26 234.16 378.45 230.02
  A 0.65 0.63 84.4 0 1 379.07 229.25
  Z
  M 405.80 223.98
  C 406.99 222.19 411.65 222.85 413.63 223.16
  Q 414.14 223.24 414.53 223.56
  Q 416.25 224.99 418.50 224.57
  A 0.97 0.96 54.3 0 0 418.79 222.78
  Q 411.77 218.81 404.17 221.67
  C 401.08 222.83 400.83 226.92 404.00 227.82
  Q 409.90 229.48 415.52 230.26
  A 1.31 1.31 0.0 0 1 415.80 232.78
  Q 409.12 235.29 404.02 230.99
  A 1.37 1.37 0.0 0 0 401.94 232.72
  C 404.68 237.55 415.50 235.78 419.30 233.69
  Q 419.76 233.44 419.91 232.93
  C 421.75 226.63 410.69 226.41 406.81 226.08
  A 1.36 1.35 -70.8 0 1 405.80 223.98
  Z
  M 57.82 233.43
  C 53.20 234.06 49.46 234.45 46.46 231.26
  A 1.03 1.03 0.0 0 1 47.21 229.52
  L 63.22 229.46
  Q 63.89 229.46 63.83 228.79
  C 63.18 221.21 54.59 219.86 48.73 221.49
  C 40.79 223.70 39.45 232.57 47.85 235.51
  C 52.31 237.06 60.34 236.85 63.01 232.02
  Q 63.27 231.56 62.76 231.43
  Q 59.98 230.74 58.37 233.08
  A 0.81 0.79 -76.7 0 1 57.82 233.43
  Z
  M 125.45 222.58
  Q 124.79 220.56 122.56 220.80
  Q 121.90 220.87 121.89 221.53
  L 121.69 235.59
  Q 121.68 236.25 122.34 236.25
  L 125.22 236.25
  Q 125.69 236.25 125.70 235.78
  Q 125.78 231.64 125.97 227.50
  C 126.19 222.58 132.45 222.53 135.59 223.79
  A 2.92 2.92 0.0 0 1 137.43 226.49
  L 137.52 235.93
  A 0.59 0.59 0.0 0 0 138.18 236.51
  L 141.03 236.18
  Q 141.46 236.13 141.42 235.70
  C 141.11 232.00 142.55 223.88 138.74 221.98
  Q 132.80 219.02 126.07 222.82
  Q 125.61 223.08 125.45 222.58
  Z
  M 273.09 230.18
  A 0.51 0.50 -11.8 0 1 273.55 229.48
  L 290.24 229.29
  Q 290.96 229.28 290.89 228.56
  C 289.94 219.06 272.44 218.31 270.05 225.97
  C 267.93 232.75 272.27 235.00 277.95 235.99
  Q 283.97 237.04 289.20 233.14
  Q 290.10 232.48 289.43 231.59
  Q 288.67 230.58 286.97 231.78
  C 283.40 234.30 275.26 235.26 273.09 230.18
  Z
  M 343.3257 221.5434
  A 0.77 0.77 0.0 0 0 342.5530 220.7761
  L 340.2930 220.7840
  A 0.77 0.77 0.0 0 0 339.5257 221.5567
  L 339.5743 235.4766
  A 0.77 0.77 0.0 0 0 340.3470 236.2439
  L 342.6070 236.2360
  A 0.77 0.77 0.0 0 0 343.3743 235.4633
  L 343.3257 221.5434
  Z
  M 353.79 222.10
  C 348.47 224.36 348.53 231.44 353.02 234.25
  C 357.46 237.03 367.47 237.31 369.93 231.13
  Q 370.27 230.28 369.35 230.32
  L 367.28 230.41
  Q 366.76 230.44 366.50 230.89
  C 363.94 235.35 353.65 234.66 353.50 229.02
  C 353.37 224.33 356.66 222.96 360.69 223.12
  Q 363.96 223.25 366.91 225.71
  A 1.28 1.27 10.7 0 0 368.94 224.33
  C 367.31 219.48 357.13 220.68 353.79 222.10
  Z
  M 84.35 232.89
  C 80.42 235.20 73.25 234.42 72.82 228.82
  C 72.30 222.10 82.22 222.40 85.70 225.27
  Q 87.36 226.64 88.16 225.13
  A 1.42 1.40 28.3 0 0 87.59 223.25
  Q 81.18 219.66 74.73 221.68
  C 69.43 223.34 66.67 230.88 71.92 234.09
  C 77.29 237.38 86.06 237.65 89.41 231.27
  Q 89.65 230.80 89.15 230.64
  Q 86.31 229.68 85.07 232.13
  Q 84.83 232.62 84.35 232.89
  Z
  M 153.4876 221.5367
  A 0.49 0.49 0.0 0 0 152.9967 221.0476
  L 150.2367 221.0524
  A 0.49 0.49 0.0 0 0 149.7476 221.5433
  L 149.7724 235.7633
  A 0.49 0.49 0.0 0 0 150.2633 236.2524
  L 153.0233 236.2476
  A 0.49 0.49 0.0 0 0 153.5124 235.7567
  L 153.4876 221.5367
  Z
  M 169.21 233.76
  C 162.41 233.56 161.41 225.12 167.76 223.59
  Q 172.40 222.47 175.70 224.91
  C 176.93 225.83 177.90 226.38 179.26 225.77
  A 0.69 0.69 0.0 0 0 179.52 224.71
  C 175.86 220.03 166.81 219.74 162.45 223.27
  C 157.63 227.16 159.88 233.27 165.16 235.30
  Q 174.31 238.82 180.69 231.49
  A 0.60 0.60 0.0 0 0 180.23 230.50
  L 177.51 230.50
  A 0.82 0.81 -76.0 0 0 176.79 230.94
  C 175.13 234.06 172.47 233.86 169.21 233.76
  Z
  M 200.62 224.10
  A 1.67 1.67 0.0 0 1 200.31 227.33
  C 195.88 227.95 191.29 227.63 186.90 229.53
  C 183.56 230.98 184.10 234.36 187.44 235.40
  Q 194.02 237.45 200.63 234.71
  A 0.79 0.78 59.4 0 1 201.54 234.95
  Q 202.89 236.65 205.06 236.52
  Q 205.71 236.48 205.62 235.83
  Q 204.93 230.85 204.82 225.82
  C 204.66 218.96 187.97 219.88 185.81 224.96
  A 0.56 0.55 16.6 0 0 186.23 225.72
  Q 188.65 226.13 190.10 224.24
  A 1.37 1.33 -78.4 0 1 190.82 223.75
  Q 195.78 222.42 200.62 224.10
  Z
  M 339.81 243.51
  Q 381.72 243.99 423.55 243.66
  A 0.21 0.20 66.9 0 0 423.69 243.31
  L 423.49 243.11
  Q 423.42 243.04 423.32 243.04
  L 336.75 243.31
  Q 333.79 243.32 336.58 243.80
  C 337.53 243.96 338.88 243.50 339.81 243.51
  Z"
/>
<path fill="#b6c17c" d="
  M 142.11 67.94
  L 135.89 60.49
  L 223.36 6.08
  A 1.29 1.27 -44.7 0 1 224.71 6.08
  L 328.59 70.83
  A 0.53 0.52 -28.0 0 1 328.29 71.80
  C 323.85 71.65 313.26 72.47 309.69 70.38
  C 283.83 55.27 258.45 39.33 232.82 23.83
  C 224.07 18.54 222.06 19.44 214.16 24.28
  Q 178.16 46.34 142.11 67.94
  Z
  M 144.96 59.33
  Q 146.49 60.43 146.78 58.56
  A 1.00 1.00 0.0 0 0 144.89 57.98
  L 144.71 58.36
  A 0.78 0.78 0.0 0 0 144.96 59.33
  Z"
/>
<path fill="#4dd85e" d="
  M 144.26 43.58
  L 145.29 43.78
  Q 145.73 43.86 145.74 44.32
  L 145.75 45.69
  L 134.01 43.72
  A 0.44 0.44 0.0 0 0 133.50 44.15
  L 133.50 44.51
  Q 133.50 44.89 133.87 44.99
  L 137.01 45.81
  A 0.36 0.36 0.0 0 1 136.98 46.52
  Q 134.68 46.90 132.01 46.19
  Q 131.29 45.99 130.86 46.47
  Q 130.52 46.85 130.96 47.11
  L 134.49 49.19
  A 0.14 0.14 0.0 0 1 134.39 49.45
  Q 130.74 48.76 127.59 48.64
  C 124.51 48.53 120.13 49.58 116.00 49.16
  A 0.45 0.45 0.0 0 0 115.76 50.02
  Q 125.03 54.30 133.35 60.91
  Q 134.44 61.78 135.89 60.49
  L 142.11 67.94
  Q 140.65 68.96 140.33 70.14
  Q 140.20 70.64 139.69 70.56
  L 138.46 70.36
  A 0.57 0.53 31.1 0 0 138.08 70.44
  Q 136.06 71.77 134.05 71.39
  L 133.33 69.52
  Q 133.16 69.07 132.67 69.05
  L 129.53 68.97
  Q 129.05 68.96 128.65 68.70
  Q 126.45 67.29 127.71 65.21
  L 118.63 59.58
  Q 117.94 59.15 118.31 59.87
  L 119.22 61.67
  A 0.28 0.28 0.0 0 1 118.79 62.01
  L 113.80 57.72
  A 0.46 0.46 0.0 0 0 113.05 58.13
  Q 113.81 63.05 116.07 67.37
  C 117.50 70.09 119.59 76.76 119.08 79.73
  Q 118.34 84.08 117.17 88.02
  Q 117.08 88.32 117.06 88.00
  L 116.81 83.28
  Q 116.79 82.86 116.88 82.45
  Q 117.13 81.19 116.22 80.10
  A 0.50 0.49 -44.7 0 0 115.47 80.10
  L 114.32 81.46
  A 0.29 0.28 -26.8 0 1 113.82 81.30
  L 113.58 77.02
  A 0.58 0.58 0.0 0 0 112.47 76.82
  L 111.77 78.40
  A 0.41 0.41 0.0 0 1 111.01 78.38
  L 106.94 67.31
  L 104.92 64.12
  Q 104.66 63.72 104.19 63.76
  L 99.43 64.08
  Q 99.00 64.11 98.98 64.54
  Q 98.87 66.07 97.70 66.57
  Q 97.14 64.97 96.01 64.05
  Q 95.45 63.59 95.67 64.28
  L 98.13 72.24
  Q 98.39 71.59 97.19 72.10
  L 94.59 69.20
  A 0.66 0.66 0.0 0 0 93.46 69.81
  Q 94.05 71.98 94.65 74.20
  Q 94.85 74.94 94.54 75.28
  Q 94.24 75.61 93.68 75.48
  A 0.56 0.55 89.6 0 0 93.02 76.16
  L 94.54 82.37
  A 0.25 0.25 0.0 0 1 94.09 82.58
  L 92.04 79.82
  A 0.70 0.70 0.0 0 0 90.82 80.02
  Q 90.09 82.23 91.76 84.04
  A 0.32 0.31 88.2 0 1 91.33 84.50
  L 89.56 83.03
  Q 89.27 82.79 88.98 83.04
  Q 88.22 83.69 88.49 84.51
  Q 89.67 88.03 91.03 91.20
  A 0.33 0.32 16.9 0 1 90.46 91.50
  C 88.08 87.95 84.86 84.36 84.20 80.23
  Q 82.83 71.62 87.27 63.79
  A 0.86 0.83 48.5 0 0 87.30 63.04
  Q 87.05 62.46 87.48 61.90
  A 0.95 0.65 -18.6 0 0 85.92 61.46
  Q 84.25 63.66 83.34 66.34
  A 0.29 0.29 0.0 0 1 82.78 66.26
  L 82.69 63.70
  A 0.79 0.79 0.0 0 0 81.18 63.41
  L 79.32 67.53
  Q 79.07 68.09 78.56 67.74
  L 77.68 67.12
  Q 77.15 66.74 76.83 67.30
  L 73.10 73.73
  A 0.22 0.22 0.0 0 1 72.69 73.60
  L 73.00 69.95
  A 0.52 0.52 0.0 0 0 72.18 69.48
  Q 70.90 70.38 69.60 73.41
  Q 68.75 75.40 68.75 73.23
  L 68.75 71.23
  A 0.72 0.71 61.9 0 0 67.44 70.83
  Q 65.68 73.47 65.15 76.57
  A 0.65 0.65 0.0 0 1 63.86 76.49
  C 63.32 66.05 71.33 58.68 81.00 55.07
  A 0.39 0.39 0.0 0 0 80.99 54.33
  L 80.62 54.21
  A 0.55 0.55 0.0 0 1 80.44 53.26
  L 82.76 51.40
  A 0.53 0.53 0.0 0 0 82.30 50.48
  L 74.54 52.40
  A 0.38 0.37 22.2 0 1 74.25 51.72
  L 77.13 49.98
  Q 77.57 49.71 77.34 49.25
  Q 76.94 48.45 76.05 48.76
  Q 72.22 50.11 68.81 50.39
  A 0.25 0.24 28.5 0 1 68.67 49.93
  L 69.35 49.56
  Q 69.82 49.31 69.65 48.81
  Q 69.49 48.35 68.99 48.47
  Q 65.23 49.40 61.43 50.27
  A 0.33 0.33 0.0 0 1 61.20 49.66
  L 65.74 47.19
  Q 66.15 46.96 65.91 46.55
  Q 65.74 46.25 65.38 46.13
  Q 65.08 46.03 64.63 46.16
  Q 61.66 47.02 58.73 48.17
  A 0.29 0.29 0.0 0 1 58.45 47.66
  L 61.77 45.29
  A 0.40 0.40 0.0 0 0 61.82 44.69
  L 61.58 44.46
  Q 61.30 44.17 60.92 44.30
  Q 56.19 45.90 51.30 46.87
  Q 48.45 47.43 51.00 46.05
  C 54.18 44.32 57.61 42.18 60.96 41.15
  C 71.53 37.92 81.20 41.82 90.76 45.88
  A 0.48 0.48 0.0 0 0 91.16 45.01
  L 82.80 40.86
  A 0.37 0.37 0.0 0 1 83.03 40.17
  L 88.54 41.24
  A 0.43 0.43 0.0 0 0 88.80 40.42
  L 79.84 36.31
  A 0.19 0.19 0.0 0 1 79.94 35.95
  L 86.01 36.47
  A 0.37 0.36 -30.9 0 0 86.19 35.77
  L 76.72 31.80
  Q 76.08 31.53 76.76 31.40
  Q 79.68 30.84 82.57 32.73
  Q 83.03 33.03 83.38 32.68
  Q 83.81 32.26 83.26 32.01
  L 73.64 27.42
  Q 73.12 27.17 73.60 26.85
  Q 74.17 26.47 75.23 26.83
  Q 77.86 27.73 80.37 27.67
  A 0.40 0.40 0.0 0 0 80.50 26.89
  L 71.91 23.71
  Q 71.44 23.54 71.89 23.33
  Q 72.48 23.04 73.26 23.18
  Q 76.16 23.68 78.76 24.31
  A 0.58 0.58 0.0 0 0 79.13 23.22
  L 68.88 18.81
  Q 67.95 18.41 68.96 18.53
  C 84.20 20.40 94.91 25.71 98.92 41.19
  Q 100.15 45.94 100.29 41.04
  Q 100.35 39.17 99.39 35.10
  Q 99.29 34.71 99.69 34.74
  Q 99.83 34.75 99.96 34.75
  Q 100.17 34.75 100.26 34.95
  L 102.43 40.17
  Q 102.98 41.47 103.21 40.08
  Q 104.02 35.33 101.90 31.02
  A 0.55 0.55 0.0 0 1 102.14 30.29
  Q 102.49 30.11 102.65 30.34
  Q 104.54 32.95 105.72 35.75
  A 0.53 0.53 0.0 0 0 106.73 35.45
  L 105.06 25.71
  Q 104.99 25.33 105.37 25.25
  Q 105.89 25.16 106.25 25.81
  Q 106.87 26.94 107.61 31.32
  A 0.26 0.26 0.0 0 0 108.12 31.35
  C 108.90 28.65 107.33 24.18 107.56 21.21
  A 0.34 0.34 0.0 0 1 108.20 21.07
  L 110.89 25.97
  Q 111.09 26.34 111.20 25.93
  C 112.05 22.59 110.87 21.33 110.02 18.36
  A 0.47 0.47 0.0 0 1 110.88 18.00
  L 114.28 24.18
  A 0.32 0.32 0.0 0 0 114.84 24.19
  Q 114.96 24.00 114.92 23.76
  Q 113.99 18.49 113.06 13.69
  A 0.61 0.61 0.0 0 1 114.20 13.30
  C 116.35 17.53 119.94 23.90 119.35 28.64
  Q 118.47 35.63 114.01 40.83
  A 0.83 0.83 0.0 0 0 114.85 42.17
  C 125.27 39.44 132.58 40.56 144.26 43.58
  Z"
/>
<path fill="#9af03b" d="
  M 145.75 45.69
  L 145.74 44.32
  Q 145.73 43.86 145.29 43.78
  L 144.26 43.58
  Q 145.50 43.60 145.48 41.92
  Q 145.33 30.80 145.77 27.99
  C 146.68 22.09 161.48 23.94 165.98 23.99
  C 169.51 24.04 171.61 26.11 171.63 29.68
  C 171.64 34.33 169.47 36.74 165.48 39.29
  Q 158.64 43.67 151.74 47.95
  C 149.16 49.55 145.94 50.15 145.75 45.69
  Z"
/>
<path fill="#9af03b" d="
  M 236.81 29.10
  C 242.97 32.97 248.97 36.29 255.08 39.86
  C 261.90 43.85 270.68 49.93 278.82 54.47
  A 0.45 0.45 0.0 0 1 278.58 55.31
  C 265.86 54.64 249.87 58.86 241.09 68.82
  C 238.62 71.62 238.05 75.59 235.79 78.86
  A 1.78 1.74 -82.1 0 1 234.95 79.51
  Q 229.64 81.48 225.47 85.26
  Q 224.83 85.84 224.83 84.98
  L 224.71 26.99
  A 1.24 1.22 -20.7 0 1 225.14 26.06
  C 228.09 23.50 234.10 27.39 236.81 29.10
  Z"
/>
<path fill="#b6c17c" d="
  M 198.14 90.26
  L 204.31 86.18
  A 0.93 0.93 0.0 0 0 204.52 84.82
  L 201.57 81.11
  A 1.08 1.07 -35.4 0 1 201.84 79.54
  L 212.20 72.96
  A 0.84 0.84 0.0 0 0 212.30 71.62
  L 210.17 69.77
  A 0.82 0.82 0.0 0 0 209.21 69.69
  L 198.26 76.35
  A 0.64 0.63 -35.7 0 1 197.44 76.22
  L 191.36 69.07
  A 0.76 0.75 -36.4 0 1 191.54 67.94
  L 202.33 61.26
  A 0.71 0.71 0.0 0 0 202.44 60.14
  L 200.35 58.17
  A 0.67 0.66 51.0 0 0 199.55 58.08
  L 188.56 64.64
  A 0.55 0.55 0.0 0 1 187.88 64.56
  L 184.08 60.81
  Q 183.62 60.36 182.98 60.45
  Q 177.06 61.24 175.14 66.66
  Q 174.95 67.19 174.45 67.46
  Q 164.89 72.56 168.23 83.32
  Q 168.39 83.84 167.92 84.12
  L 150.15 94.76
  Q 147.96 96.07 146.64 93.49
  Q 146.39 93.00 146.30 91.07
  C 145.84 80.39 144.26 69.61 153.28 64.22
  Q 185.19 45.12 217.20 26.20
  Q 219.35 24.93 221.33 26.20
  A 0.95 0.94 -72.1 0 1 221.77 27.07
  Q 221.70 27.98 221.71 29.50
  Q 221.88 62.37 221.72 95.23
  C 221.70 98.94 220.57 102.21 216.50 102.30
  Q 189.18 102.88 180.25 102.44
  C 171.89 102.03 162.93 103.27 154.75 102.03
  A 0.76 0.76 0.0 0 1 154.48 100.62
  L 172.60 89.89
  A 1.09 1.08 -45.3 0 1 173.70 89.88
  Q 184.22 95.91 194.60 89.71
  Q 195.07 89.43 195.57 89.64
  L 197.31 90.35
  A 0.91 0.90 38.6 0 0 198.14 90.26
  Z"
/>
<path fill="#8f8f8c" d="
  M 144.96 59.33
  A 0.78 0.78 0.0 0 1 144.71 58.36
  L 144.89 57.98
  A 1.00 1.00 0.0 0 1 146.78 58.56
  Q 146.49 60.43 144.96 59.33
  Z"
/>
<path fill="#9af03b" d="
  M 261.42 63.42
  C 264.35 58.90 276.48 58.04 281.30 58.12
  C 287.89 58.23 297.42 64.90 300.88 70.09
  Q 301.18 70.54 301.18 71.08
  L 301.24 93.88
  A 1.79 1.79 0.0 0 1 299.41 95.68
  Q 296.63 95.63 294.43 94.10
  Q 281.28 84.99 268.28 75.68
  C 265.40 73.62 258.71 67.59 261.42 63.42
  Z"
/>
<path fill="#e7b75f" d="
  M 106.94 67.31
  Q 106.19 69.43 106.57 71.77
  Q 106.63 72.10 106.90 72.31
  L 108.52 73.58
  A 0.73 0.72 -64.9 0 1 108.78 74.31
  C 108.10 77.37 107.52 80.14 107.81 83.35
  C 110.60 113.81 109.50 138.00 108.91 165.50
  Q 108.80 170.53 107.83 176.26
  A 2.39 2.38 5.1 0 1 105.45 178.24
  L 100.24 178.19
  L 99.94 177.19
  Q 99.80 176.73 99.43 176.41
  Q 98.37 175.52 99.55 174.55
  C 102.78 145.33 101.97 122.79 101.36 96.49
  C 101.20 89.81 100.29 83.26 99.58 76.60
  C 99.37 74.63 98.38 73.53 97.19 72.10
  Q 98.39 71.59 98.13 72.24
  Q 99.51 69.89 97.70 66.57
  Q 98.87 66.07 98.98 64.54
  Q 99.00 64.11 99.43 64.08
  L 104.19 63.76
  Q 104.66 63.72 104.92 64.12
  L 106.94 67.31
  Z"
/>
<path fill="#ffffff" d="
  M 97.70 66.57
  Q 99.51 69.89 98.13 72.24
  L 95.67 64.28
  Q 95.45 63.59 96.01 64.05
  Q 97.14 64.97 97.70 66.57
  Z"
/>
<path fill="#b6c17c" d="
  M 127.71 65.21
  Q 126.45 67.29 128.65 68.70
  Q 129.05 68.96 129.53 68.97
  L 132.67 69.05
  Q 133.16 69.07 133.33 69.52
  L 134.05 71.39
  L 119.18 71.67
  A 0.38 0.38 0.0 0 1 118.97 70.96
  L 124.31 67.74
  A 0.95 0.95 0.0 0 0 124.67 67.38
  Q 125.28 66.30 127.71 65.21
  Z"
/>
<path fill="#9af03b" d="
  M 234.94 92.95
  A 2.36 2.35 -59.5 0 0 238.20 92.10
  Q 240.28 88.43 241.73 84.23
  C 243.87 78.03 253.50 79.58 258.06 81.71
  C 268.74 86.68 278.20 94.27 287.54 101.27
  A 0.71 0.70 -26.9 0 1 287.12 102.54
  Q 261.54 102.94 236.08 102.68
  C 231.94 102.64 228.96 102.99 225.64 100.06
  A 1.38 1.34 -73.7 0 1 225.20 99.23
  Q 224.38 93.41 225.09 87.59
  Q 225.15 87.04 225.63 87.33
  L 234.94 92.95
  Z"
/>
<path fill="#9af03b" d="
  M 187.74 117.56
  C 185.16 116.82 181.97 115.32 179.31 117.27
  Q 172.69 122.12 166.44 127.46
  A 0.82 0.81 61.8 0 0 166.19 128.31
  C 167.04 131.13 168.73 136.14 166.98 138.55
  Q 166.65 139.00 163.62 141.56
  C 159.83 144.77 150.48 153.07 146.91 151.42
  Q 146.46 151.22 146.36 150.74
  C 146.12 149.66 145.77 148.41 145.76 147.31
  Q 145.75 130.85 145.74 114.39
  C 145.73 108.83 146.69 105.11 152.95 105.07
  Q 183.62 104.89 214.31 105.08
  C 219.62 105.11 222.52 107.05 222.47 112.57
  Q 222.28 134.44 222.53 156.27
  C 222.60 161.68 220.17 164.71 214.77 164.73
  Q 189.64 164.79 164.50 164.83
  Q 160.87 164.84 157.98 163.92
  A 1.11 1.11 0.0 0 1 157.55 162.06
  Q 166.45 153.47 176.99 146.98
  A 1.64 1.60 29.7 0 1 177.91 146.74
  C 181.82 146.89 185.29 148.90 189.27 149.35
  Q 189.82 149.41 190.26 149.08
  L 204.37 138.40
  Q 204.74 138.13 204.70 137.68
  C 204.50 135.23 204.29 129.86 200.37 132.95
  Q 197.14 135.49 193.72 137.68
  A 0.78 0.78 0.0 0 1 193.08 137.77
  L 183.21 134.82
  A 0.95 0.95 0.0 0 1 182.56 134.12
  L 180.72 125.94
  A 0.82 0.81 64.4 0 1 180.99 125.15
  L 188.10 119.28
  A 0.99 0.99 0.0 0 0 187.74 117.56
  Z"
/>
<path fill="#b6c17c" d="
  M 276.30 154.19
  Q 275.97 155.37 275.28 156.25
  Q 274.98 156.64 274.49 156.69
  L 272.99 156.84
  Q 272.16 156.92 272.44 157.71
  Q 272.71 158.44 272.36 158.87
  Q 272.05 159.26 271.07 159.26
  Q 269.19 159.26 267.27 159.60
  A 0.63 0.62 -5.0 0 0 266.75 160.21
  L 266.75 161.71
  Q 266.75 162.39 266.07 162.37
  Q 253.00 161.87 229.25 161.99
  Q 227.62 162.00 228.05 160.31
  Q 228.18 159.80 227.73 159.52
  Q 226.59 158.81 225.24 159.08
  Q 225.29 137.89 225.31 116.87
  C 225.32 108.67 225.09 105.63 234.06 105.51
  Q 256.06 105.21 278.09 105.48
  C 282.25 105.53 289.34 105.04 295.30 105.71
  Q 300.56 106.29 300.65 111.50
  Q 301.09 137.00 300.74 162.32
  A 0.40 0.40 0.0 0 1 300.07 162.61
  Q 295.27 158.09 290.63 153.65
  C 285.51 148.74 283.34 144.00 288.83 138.35
  A 1.29 1.29 0.0 0 0 288.86 136.58
  Q 284.44 131.71 278.97 127.37
  C 272.35 122.12 261.99 133.45 257.23 137.26
  C 252.84 140.77 251.47 143.86 255.83 148.12
  Q 259.98 152.17 264.28 156.05
  A 1.01 1.00 49.5 0 0 265.49 156.15
  Q 270.48 152.91 276.30 154.19
  Z
  M 238.59 128.97
  L 236.32 131.60
  A 0.46 0.45 -56.0 0 0 236.45 132.30
  Q 243.29 135.78 249.30 140.61
  A 0.41 0.40 28.4 0 0 249.94 140.42
  L 250.08 140.01
  Q 250.23 139.54 249.76 139.37
  Q 247.96 138.73 247.12 137.04
  A 0.48 0.48 0.0 0 1 247.81 136.43
  Q 249.06 137.26 250.48 137.37
  Q 251.33 137.44 250.90 136.71
  Q 249.70 134.70 247.52 132.71
  Q 247.32 132.53 247.48 132.30
  Q 247.69 132.01 248.00 132.18
  L 252.39 134.58
  A 0.62 0.61 85.4 0 0 253.17 133.66
  L 251.48 131.50
  A 0.36 0.36 0.0 0 1 251.97 130.99
  L 253.36 131.99
  A 0.41 0.40 -78.4 0 0 253.99 131.57
  L 253.78 130.64
  A 0.43 0.43 0.0 0 1 254.31 130.13
  L 255.82 130.55
  A 0.34 0.34 0.0 0 0 256.25 130.22
  Q 256.25 130.02 256.25 129.83
  Q 256.25 129.38 255.94 129.06
  L 255.62 128.75
  A 0.28 0.27 75.6 0 1 255.89 128.29
  L 257.72 128.81
  Q 258.58 129.06 258.33 128.20
  L 257.92 126.81
  A 0.35 0.35 0.0 0 1 258.50 126.47
  Q 259.36 127.35 260.50 127.00
  Q 261.19 126.79 260.85 126.16
  Q 260.04 124.64 258.66 123.59
  A 0.43 0.42 20.3 0 1 258.50 123.26
  Q 258.50 123.11 258.50 122.97
  A 0.23 0.23 0.0 0 1 258.83 122.76
  Q 260.65 123.64 262.50 124.51
  Q 263.16 124.82 263.60 124.72
  Q 264.28 124.58 264.28 123.85
  Q 264.27 123.37 264.73 123.20
  L 268.29 121.87
  Q 268.89 121.65 268.57 121.10
  L 267.69 119.61
  A 0.35 0.35 0.0 0 1 268.13 119.11
  L 269.86 119.82
  A 0.80 0.80 0.0 0 0 270.65 118.45
  L 267.16 115.73
  Q 266.30 113.16 267.00 110.26
  Q 267.14 109.67 266.55 109.53
  Q 265.16 109.20 264.54 110.33
  A 0.30 0.30 0.0 0 0 264.50 110.48
  L 264.50 112.72
  Q 264.50 113.44 263.79 113.52
  Q 254.78 114.59 247.79 120.37
  A 0.77 0.77 0.0 0 1 246.53 119.76
  L 246.71 112.86
  Q 246.72 112.30 246.16 112.33
  Q 244.56 112.42 244.95 114.07
  Q 246.01 118.58 244.74 122.09
  A 1.65 1.63 83.9 0 1 244.08 122.92
  Q 240.25 125.41 238.59 128.97
  Z"
/>
<path fill="#8f8f8c" d="
  M 267.16 115.73
  C 258.94 111.65 244.62 123.19 238.59 128.97
  Q 240.25 125.41 244.08 122.92
  A 1.65 1.63 83.9 0 0 244.74 122.09
  Q 246.01 118.58 244.95 114.07
  Q 244.56 112.42 246.16 112.33
  Q 246.72 112.30 246.71 112.86
  L 246.53 119.76
  A 0.77 0.77 0.0 0 0 247.79 120.37
  Q 254.78 114.59 263.79 113.52
  Q 264.50 113.44 264.50 112.72
  L 264.50 110.48
  A 0.30 0.30 0.0 0 1 264.54 110.33
  Q 265.16 109.20 266.55 109.53
  Q 267.14 109.67 267.00 110.26
  Q 266.30 113.16 267.16 115.73
  Z"
/>
<path fill="#ffffff" d="
  M 267.16 115.73
  L 270.65 118.45
  A 0.80 0.80 0.0 0 1 269.86 119.82
  L 268.13 119.11
  A 0.35 0.35 0.0 0 0 267.69 119.61
  L 268.57 121.10
  Q 268.89 121.65 268.29 121.87
  L 264.73 123.20
  Q 264.27 123.37 264.28 123.85
  Q 264.28 124.58 263.60 124.72
  Q 263.16 124.82 262.50 124.51
  Q 260.65 123.64 258.83 122.76
  A 0.23 0.23 0.0 0 0 258.50 122.97
  Q 258.50 123.11 258.50 123.26
  A 0.43 0.42 20.3 0 0 258.66 123.59
  Q 260.04 124.64 260.85 126.16
  Q 261.19 126.79 260.50 127.00
  Q 259.36 127.35 258.50 126.47
  A 0.35 0.35 0.0 0 0 257.92 126.81
  L 258.33 128.20
  Q 258.58 129.06 257.72 128.81
  L 255.89 128.29
  A 0.28 0.27 75.6 0 0 255.62 128.75
  L 255.94 129.06
  Q 256.25 129.38 256.25 129.83
  Q 256.25 130.02 256.25 130.22
  A 0.34 0.34 0.0 0 1 255.82 130.55
  L 254.31 130.13
  A 0.43 0.43 0.0 0 0 253.78 130.64
  L 253.99 131.57
  A 0.41 0.40 -78.4 0 1 253.36 131.99
  L 251.97 130.99
  A 0.36 0.36 0.0 0 0 251.48 131.50
  L 253.17 133.66
  A 0.62 0.61 85.4 0 1 252.39 134.58
  L 248.00 132.18
  Q 247.69 132.01 247.48 132.30
  Q 247.32 132.53 247.52 132.71
  Q 249.70 134.70 250.90 136.71
  Q 251.33 137.44 250.48 137.37
  Q 249.06 137.26 247.81 136.43
  A 0.48 0.48 0.0 0 0 247.12 137.04
  Q 247.96 138.73 249.76 139.37
  Q 250.23 139.54 250.08 140.01
  L 249.94 140.42
  A 0.41 0.40 28.4 0 1 249.30 140.61
  Q 243.29 135.78 236.45 132.30
  A 0.46 0.45 -56.0 0 1 236.32 131.60
  L 238.59 128.97
  C 244.62 123.19 258.94 111.65 267.16 115.73
  Z"
/>
<path fill="#8f8f8c" d="
  M 276.30 154.19
  C 281.33 155.74 285.99 159.92 289.65 163.27
  Q 290.76 164.29 289.25 164.29
  Q 259.72 164.27 232.26 164.22
  Q 226.43 164.21 225.24 159.08
  Q 226.59 158.81 227.73 159.52
  Q 228.18 159.80 228.05 160.31
  Q 227.62 162.00 229.25 161.99
  Q 253.00 161.87 266.07 162.37
  Q 266.75 162.39 266.75 161.71
  L 266.75 160.21
  A 0.63 0.62 -5.0 0 1 267.27 159.60
  Q 269.19 159.26 271.07 159.26
  Q 272.05 159.26 272.36 158.87
  Q 272.71 158.44 272.44 157.71
  Q 272.16 156.92 272.99 156.84
  L 274.49 156.69
  Q 274.98 156.64 275.28 156.25
  Q 275.97 155.37 276.30 154.19
  Z"
/>
<rect fill="#b6c17c" x="-58.94" y="-1.87" transform="translate(362.72,176.33) rotate(-0.1)" width="117.88" height="3.74" rx="0.70"/>
<path fill="#b6c17c" d="
  M 99.55 174.55
  Q 98.37 175.52 99.43 176.41
  Q 99.80 176.73 99.94 177.19
  L 100.24 178.19
  L 16.23 178.33
  A 0.51 0.50 -88.9 0 1 15.73 177.80
  L 15.85 175.14
  Q 15.87 174.51 16.51 174.51
  L 99.55 174.55
  Z"
/>
<path fill="#fe935f" d="
  M 144.50 183.50
  A 0.72 0.54 -51.2 0 0 143.27 183.82
  Q 142.49 193.73 143.51 203.63
  A 0.57 0.56 87.2 0 1 142.95 204.25
  L 135.09 204.24
  A 0.58 0.57 -84.2 0 1 134.53 203.55
  Q 136.68 192.77 134.65 181.95
  Q 134.52 181.26 135.22 181.26
  L 170.99 181.12
  Q 171.55 181.12 171.52 181.68
  L 171.30 186.22
  Q 171.27 186.77 170.72 186.76
  L 162.53 186.63
  Q 161.90 186.62 161.84 187.26
  Q 161.10 195.41 162.72 203.39
  Q 162.87 204.10 162.14 204.11
  L 154.38 204.26
  Q 153.75 204.27 153.78 203.64
  L 154.56 187.55
  Q 154.60 186.75 153.80 186.75
  L 145.75 186.75
  A 1.25 1.25 0.0 0 1 144.50 185.50
  L 144.50 183.50
  Z"
/>
<path fill="#fe935f" d="
  M 395.21 202.07
  A 1.41 1.40 -6.2 0 0 396.34 200.67
  L 396.00 181.17
  Q 395.99 180.81 396.36 180.80
  C 402.51 180.67 418.57 178.85 422.16 184.80
  C 424.61 188.87 422.30 192.59 417.86 194.50
  Q 417.19 194.79 417.68 195.32
  L 423.82 202.07
  A 0.94 0.94 0.0 0 1 423.14 203.64
  L 414.88 203.80
  Q 414.33 203.81 414.17 203.28
  C 412.98 199.22 409.52 193.97 404.63 195.42
  Q 404.21 195.55 404.23 195.99
  L 404.58 203.03
  Q 404.61 203.68 403.96 203.69
  L 384.59 203.94
  A 0.96 0.96 0.0 0 1 383.73 202.54
  C 384.99 200.14 383.77 198.69 381.22 198.73
  C 378.59 198.78 369.12 197.10 372.29 203.15
  A 0.60 0.60 0.0 0 1 371.74 204.02
  L 363.43 203.89
  A 0.93 0.93 0.0 0 1 362.66 202.45
  C 366.28 196.98 372.96 187.92 373.41 181.31
  Q 373.45 180.70 374.06 180.71
  L 382.31 180.91
  A 1.04 1.04 0.0 0 1 383.30 182.18
  C 382.54 185.64 390.57 197.20 392.64 200.55
  Q 393.76 202.36 395.21 202.07
  Z
  M 415.1815 187.6087
  A 1.32 1.32 0.0 0 0 413.8684 186.2818
  L 405.5485 186.2382
  A 1.32 1.32 0.0 0 0 404.2216 187.5513
  L 404.2185 188.1513
  A 1.32 1.32 0.0 0 0 405.5316 189.4782
  L 413.8515 189.5218
  A 1.32 1.32 0.0 0 0 415.1784 188.2087
  L 415.1815 187.6087
  Z
  M 379.33 193.06
  A 0.35 0.35 0.0 0 0 379.63 192.57
  L 378.66 190.51
  A 0.35 0.35 0.0 0 0 378.09 190.42
  L 375.92 192.69
  A 0.35 0.35 0.0 0 0 376.19 193.28
  L 379.33 193.06
  Z"
/>
<path fill="#fe935f" d="
  M 108.62 201.55
  Q 109.19 198.49 111.47 196.54
  A 0.77 0.77 0.0 0 1 112.44 196.53
  Q 116.42 199.70 121.51 198.27
  A 1.16 1.15 81.6 0 0 122.35 197.13
  L 121.96 181.65
  Q 121.95 181.25 122.35 181.25
  L 129.97 181.25
  Q 130.56 181.25 130.52 181.83
  Q 130.11 188.98 129.94 196.07
  C 129.72 204.95 119.33 205.17 113.22 203.26
  C 110.99 202.56 109.89 202.61 107.93 203.46
  C 105.52 204.51 98.91 205.48 98.76 201.84
  A 1.09 1.09 0.0 0 0 98.37 201.05
  L 87.47 192.06
  A 0.37 0.37 0.0 0 0 86.87 192.30
  Q 86.24 197.90 87.52 203.35
  A 0.66 0.66 0.0 0 1 86.89 204.16
  L 67.90 204.23
  A 1.00 0.99 14.7 0 1 67.03 202.75
  C 69.96 197.57 59.21 198.90 55.95 199.25
  A 0.50 0.50 0.0 0 0 55.51 199.75
  L 55.49 203.54
  A 0.66 0.65 -89.6 0 1 54.84 204.19
  L 35.94 204.38
  Q 35.51 204.38 35.43 203.95
  Q 34.54 199.06 30.44 196.05
  Q 30.03 195.75 29.52 195.75
  L 26.04 195.75
  Q 25.65 195.75 25.60 196.14
  Q 25.05 199.79 26.24 203.25
  A 0.73 0.73 0.0 0 1 25.55 204.22
  L 18.29 204.26
  Q 17.03 204.27 17.14 203.02
  Q 18.06 192.45 16.97 181.93
  Q 16.91 181.37 17.47 181.34
  C 22.37 181.06 36.87 179.92 41.10 182.70
  C 47.30 186.76 44.29 192.17 39.08 195.09
  A 0.46 0.46 0.0 0 0 38.98 195.81
  L 44.14 200.98
  A 1.84 1.83 48.7 0 0 46.55 201.14
  Q 47.48 200.44 48.40 198.87
  Q 52.45 191.94 56.47 185.01
  Q 56.72 184.58 56.59 184.10
  L 55.99 181.98
  A 0.61 0.61 0.0 0 1 56.58 181.20
  L 65.91 181.23
  A 0.60 0.60 0.0 0 1 66.50 181.92
  L 66.20 184.13
  Q 66.12 184.69 66.42 185.17
  L 76.43 201.43
  Q 77.34 202.92 78.78 201.94
  Q 79.47 201.48 79.56 199.74
  Q 80.07 190.77 79.00 181.85
  Q 78.92 181.22 79.56 181.23
  L 87.69 181.30
  Q 88.22 181.30 88.49 181.76
  Q 88.89 182.43 88.74 183.21
  Q 88.64 183.73 89.05 184.07
  L 99.42 192.81
  A 0.45 0.45 0.0 0 0 100.16 192.51
  Q 100.68 187.27 99.49 182.21
  Q 99.24 181.17 100.31 181.20
  L 107.29 181.38
  Q 107.68 181.39 107.67 181.78
  L 107.43 201.43
  A 0.60 0.60 0.0 0 0 108.62 201.55
  Z
  M 36.4392 187.8005
  A 1.18 1.18 0.0 0 0 35.2572 186.6225
  L 26.6972 186.6375
  A 1.18 1.18 0.0 0 0 25.5192 187.8195
  L 25.5208 188.6995
  A 1.18 1.18 0.0 0 0 26.7028 189.8775
  L 35.2628 189.8625
  A 1.18 1.18 0.0 0 0 36.4408 188.6805
  L 36.4392 187.8005
  Z
  M 60.05 193.44
  L 62.27 193.36
  A 0.25 0.25 0.0 0 0 62.51 193.10
  L 62.51 192.95
  A 1.94 1.31 87.9 0 0 61.13 191.06
  L 61.03 191.06
  A 1.94 1.31 87.9 0 0 59.79 193.05
  L 59.79 193.20
  A 0.25 0.25 0.0 0 0 60.05 193.44
  Z"
/>
<path fill="#fe935f" d="
  M 200.86 188.25
  A 1.34 1.34 0.0 0 0 199.80 186.90
  Q 196.15 186.13 192.47 186.82
  A 0.82 0.82 0.0 0 1 191.50 186.01
  L 191.50 181.58
  A 0.42 0.42 0.0 0 1 191.92 181.16
  L 217.00 181.16
  A 0.52 0.52 0.0 0 1 217.52 181.67
  L 217.62 185.48
  A 1.32 1.32 0.0 0 1 216.06 186.81
  Q 212.54 186.17 209.02 186.83
  Q 208.40 186.94 208.41 187.57
  L 208.72 203.73
  Q 208.73 204.25 208.21 204.25
  L 201.02 204.25
  A 0.53 0.53 0.0 0 1 200.49 203.71
  L 200.86 188.25
  Z"
/>
<path fill="#fe935f" d="
  M 255.95 198.81
  L 272.10 198.61
  A 0.65 0.65 0.0 0 1 272.76 199.30
  L 272.49 203.66
  Q 272.46 204.27 271.84 204.26
  L 247.82 204.22
  Q 247.28 204.22 247.32 203.68
  Q 248.30 192.81 247.23 181.95
  A 0.73 0.73 0.0 0 1 247.97 181.15
  L 255.67 181.29
  Q 255.96 181.30 255.95 181.60
  L 255.35 198.20
  Q 255.33 198.82 255.95 198.81
  Z"
/>
<path fill="#fe935f" d="
  M 300.85 194.76
  C 301.65 207.82 275.01 206.18 274.59 197.31
  Q 274.23 189.56 274.01 181.81
  Q 274.00 181.23 274.58 181.21
  L 281.95 180.93
  A 0.64 0.64 0.0 0 1 282.60 181.74
  Q 280.56 189.20 281.99 196.24
  C 282.58 199.09 287.16 198.59 289.75 198.48
  Q 293.05 198.34 293.30 195.43
  Q 293.89 188.58 293.00 181.78
  Q 292.91 181.11 293.59 181.12
  L 301.40 181.22
  Q 302.02 181.23 301.89 181.84
  Q 300.45 188.25 300.85 194.76
  Z"
/>
<path fill="#fe935f" d="
  M 313.98 188.12
  Q 319.19 186.42 321.68 181.65
  Q 321.89 181.25 322.32 181.21
  C 327.47 180.63 331.04 181.76 334.86 181.29
  C 340.56 180.58 353.00 179.98 358.01 182.70
  C 367.22 187.68 364.98 202.21 354.18 203.59
  Q 345.20 204.74 336.20 203.83
  C 331.61 203.36 327.35 204.72 322.52 203.98
  Q 321.99 203.90 321.99 203.36
  C 321.95 199.59 318.82 198.10 316.62 195.71
  A 1.78 1.78 0.0 0 0 313.56 196.59
  Q 312.94 199.99 314.16 203.03
  A 0.70 0.70 0.0 0 1 313.51 203.99
  L 305.47 203.99
  A 0.66 0.66 0.0 0 1 304.82 203.24
  Q 306.31 192.48 304.78 181.74
  A 0.71 0.71 0.0 0 1 305.52 180.93
  L 313.52 181.29
  A 0.88 0.88 0.0 0 1 314.26 182.58
  Q 312.93 185.08 313.46 187.81
  Q 313.54 188.26 313.98 188.12
  Z
  M 333.39 182.87
  L 322.10 190.42
  Q 321.51 190.81 322.02 191.31
  L 333.02 201.90
  A 1.44 1.44 0.0 0 0 335.46 200.89
  Q 335.58 192.79 335.28 185.07
  Q 335.23 183.58 334.54 182.95
  A 0.94 0.93 -40.8 0 0 333.39 182.87
  Z
  M 343.07 187.65
  L 343.01 197.29
  A 1.19 1.19 0.0 0 0 344.19 198.49
  L 350.55 198.54
  A 5.39 5.34 0.4 0 0 355.98 193.24
  L 355.98 191.90
  A 5.39 5.34 0.4 0 0 350.63 186.52
  L 344.27 186.47
  A 1.19 1.19 0.0 0 0 343.07 187.65
  Z"
/>
<path fill="#fe935f" d="
  M 234.79 182.22
  L 234.49 184.43
  Q 234.42 184.94 234.69 185.38
  L 246.01 203.53
  Q 246.34 204.06 245.72 204.08
  L 236.17 204.32
  Q 235.50 204.34 235.50 203.67
  L 235.50 199.75
  A 0.67 0.66 -86.6 0 0 234.92 199.09
  Q 229.48 198.41 224.05 199.25
  A 1.02 1.02 0.0 0 0 223.19 200.36
  L 223.52 203.56
  A 0.65 0.64 87.6 0 1 222.87 204.27
  L 214.53 204.18
  A 0.75 0.74 -73.8 0 1 213.91 203.04
  Q 219.02 194.81 224.00 186.27
  C 224.98 184.59 224.81 183.64 224.74 181.78
  Q 224.72 181.25 225.25 181.25
  L 233.94 181.25
  A 0.86 0.86 0.0 0 1 234.79 182.22
  Z
  M 228.34 191.41
  L 227.33 192.74
  A 0.45 0.45 0.0 0 0 227.64 193.46
  Q 228.69 193.57 229.67 193.52
  Q 230.79 193.46 230.91 192.84
  Q 231.06 192.13 230.12 190.89
  Q 229.50 190.07 228.73 190.75
  Q 228.65 190.81 228.58 191.00
  Q 228.49 191.22 228.34 191.41
  Z"
/>
<path fill="#ffffff" d="
  M 333.39 182.87
  A 0.94 0.93 -40.8 0 1 334.54 182.95
  Q 335.23 183.58 335.28 185.07
  Q 335.58 192.79 335.46 200.89
  A 1.44 1.44 0.0 0 1 333.02 201.90
  L 322.02 191.31
  Q 321.51 190.81 322.10 190.42
  L 333.39 182.87
  Z"
/>
<rect fill="#ffffff" x="-5.48" y="-1.62" transform="translate(409.70,187.88) rotate(0.3)" width="10.96" height="3.24" rx="1.32"/>
<rect fill="#ffffff" x="-5.46" y="-1.62" transform="translate(30.98,188.25) rotate(-0.1)" width="10.92" height="3.24" rx="1.18"/>
<path fill="#ffffff" d="
  M 343.07 187.65
  A 1.19 1.19 0.0 0 1 344.27 186.47
  L 350.63 186.52
  A 5.39 5.34 0.4 0 1 355.98 191.90
  L 355.98 193.24
  A 5.39 5.34 0.4 0 1 350.55 198.54
  L 344.19 198.49
  A 1.19 1.19 0.0 0 1 343.01 197.29
  L 343.07 187.65
  Z"
/>
<path fill="#ffffff" d="
  M 379.33 193.06
  L 376.19 193.28
  A 0.35 0.35 0.0 0 1 375.92 192.69
  L 378.09 190.42
  A 0.35 0.35 0.0 0 1 378.66 190.51
  L 379.63 192.57
  A 0.35 0.35 0.0 0 1 379.33 193.06
  Z"
/>
<path fill="#ffffff" d="
  M 228.58 191.00
  Q 228.65 190.81 228.73 190.75
  Q 229.50 190.07 230.12 190.89
  Q 231.06 192.13 230.91 192.84
  Q 230.79 193.46 229.67 193.52
  Q 228.69 193.57 227.64 193.46
  A 0.45 0.45 0.0 0 1 227.33 192.74
  L 228.34 191.41
  Q 228.49 191.22 228.58 191.00
  Z"
/>
<path fill="#ffffff" d="
  M 60.05 193.44
  A 0.25 0.25 0.0 0 1 59.79 193.20
  L 59.79 193.05
  A 1.94 1.31 87.9 0 1 61.03 191.06
  L 61.13 191.06
  A 1.94 1.31 87.9 0 1 62.51 192.95
  L 62.51 193.10
  A 0.25 0.25 0.0 0 1 62.27 193.36
  L 60.05 193.44
  Z"
/>
<ellipse fill="#8f8f8c" cx="0.00" cy="0.00" transform="translate(341.49,215.80) rotate(-5.1)" rx="2.05" ry="1.22"/>
<path fill="#8f8f8c" d="
  M 27.25 217.26
  Q 22.81 217.23 18.37 217.23
  Q 17.28 217.23 16.91 216.73
  Q 16.50 216.17 16.82 215.22
  A 0.78 0.78 0.0 0 1 17.56 214.69
  L 41.65 214.89
  Q 42.15 214.89 42.33 215.36
  Q 43.01 217.21 41.44 217.22
  Q 36.84 217.24 32.25 217.26
  Q 31.75 217.26 31.75 217.76
  L 31.75 235.75
  Q 31.75 236.25 31.25 236.25
  L 28.25 236.25
  Q 27.75 236.25 27.75 235.75
  L 27.75 217.77
  Q 27.75 217.27 27.25 217.26
  Z"
/>
<path fill="#9ba66c" d="
  M 111.81 222.19
  C 115.55 223.87 114.53 232.31 114.49 235.81
  Q 114.48 236.45 113.83 236.44
  L 111.15 236.39
  Q 110.51 236.38 110.51 235.73
  C 110.49 232.85 110.39 229.92 110.64 227.04
  C 111.15 221.33 102.03 223.20 99.36 225.26
  A 0.83 0.82 72.9 0 0 99.04 225.87
  L 98.68 235.29
  A 1.42 1.42 0.0 0 1 96.99 236.63
  Q 95.33 236.30 94.92 235.33
  Q 94.82 235.12 94.81 233.15
  Q 94.73 224.30 94.81 215.46
  Q 94.81 214.87 95.40 214.85
  L 98.06 214.73
  Q 98.75 214.70 98.75 215.38
  L 98.75 222.48
  A 0.55 0.55 0.0 0 0 99.59 222.95
  Q 105.39 219.30 111.81 222.19
  Z"
/>
<rect fill="#8f8f8c" x="-1.77" y="-10.71" transform="translate(214.52,225.60) rotate(-0.2)" width="3.54" height="21.42" rx="0.26"/>
<path fill="#8f8f8c" d="
  M 243.38 221.83
  C 249.87 224.61 256.16 223.71 261.83 226.84
  Q 262.31 227.11 262.53 227.61
  Q 264.66 232.38 259.51 234.52
  C 252.41 237.46 243.56 237.25 238.07 231.08
  A 1.54 1.53 68.5 0 1 239.18 228.52
  L 240.74 228.49
  Q 241.29 228.48 241.46 229.00
  L 242.14 231.06
  A 1.43 1.43 0.0 0 0 242.83 231.88
  C 246.90 234.03 256.54 235.62 259.90 230.64
  Q 260.22 230.17 259.89 229.70
  C 255.57 223.50 243.55 228.62 238.95 221.50
  A 1.17 1.16 37.0 0 1 238.81 220.54
  C 241.13 212.63 259.27 213.06 262.42 219.63
  Q 262.75 220.32 261.99 220.40
  L 259.82 220.65
  Q 259.30 220.71 259.02 220.27
  C 256.18 215.85 248.45 216.64 244.34 218.06
  Q 241.79 218.95 242.73 221.18
  A 1.26 1.21 1.1 0 0 243.38 221.83
  Z"
/>
<ellipse fill="#8f8f8c" cx="0.00" cy="0.00" transform="translate(151.64,216.02) rotate(0.3)" rx="2.19" ry="1.15"/>
<path fill="#9ba66c" d="
  M 302.00 223.00
  Q 305.11 220.06 309.45 220.87
  A 0.99 0.98 -87.7 0 1 310.26 221.75
  Q 310.37 222.93 309.07 223.30
  Q 308.68 223.41 308.29 223.32
  Q 304.66 222.47 302.56 225.37
  A 1.50 1.50 0.0 0 0 302.26 226.27
  L 302.19 235.78
  Q 302.19 236.25 301.72 236.25
  L 299.00 236.25
  Q 298.25 236.25 298.25 235.50
  L 298.25 221.39
  Q 298.25 220.79 298.85 220.72
  L 300.32 220.56
  A 0.79 0.78 -6.1 0 1 301.19 221.26
  L 301.34 222.75
  Q 301.42 223.54 302.00 223.00
  Z"
/>
<path fill="#9ba66c" d="
  M 325.91 234.93
  A 3.08 3.07 -45.0 0 1 320.56 234.93
  L 312.99 221.51
  A 0.51 0.51 0.0 0 1 313.24 220.79
  C 315.08 220.00 316.36 220.92 317.27 222.60
  Q 320.01 227.65 322.69 232.47
  A 0.66 0.65 44.3 0 0 323.84 232.46
  L 329.39 222.02
  Q 329.66 221.50 330.17 221.20
  Q 331.46 220.45 333.05 220.79
  A 0.61 0.61 0.0 0 1 333.45 221.69
  L 325.91 234.93
  Z"
/>
<path fill="#8f8f8c" d="
  M 378.45 230.02
  C 379.26 234.16 386.47 233.78 389.47 233.29
  A 1.53 1.53 0.0 0 0 390.33 232.82
  Q 392.19 230.72 395.00 231.01
  Q 395.65 231.07 395.38 231.67
  C 392.32 238.27 375.43 237.39 374.47 229.40
  C 373.16 218.44 395.67 216.78 396.19 228.79
  Q 396.21 229.25 395.75 229.25
  L 379.07 229.25
  A 0.65 0.63 84.4 0 0 378.45 230.02
  Z
  M 378.27 226.66
  L 392.13 226.34
  A 0.16 0.16 0.0 0 0 392.28 226.18
  L 392.28 226.10
  A 6.99 3.22 -1.3 0 0 385.22 223.04
  L 385.02 223.04
  A 6.99 3.22 -1.3 0 0 378.11 226.42
  L 378.11 226.50
  A 0.16 0.16 0.0 0 0 378.27 226.66
  Z"
/>
<path fill="#8f8f8c" d="
  M 405.80 223.98
  A 1.36 1.35 -70.8 0 0 406.81 226.08
  C 410.69 226.41 421.75 226.63 419.91 232.93
  Q 419.76 233.44 419.30 233.69
  C 415.50 235.78 404.68 237.55 401.94 232.72
  A 1.37 1.37 0.0 0 1 404.02 230.99
  Q 409.12 235.29 415.80 232.78
  A 1.31 1.31 0.0 0 0 415.52 230.26
  Q 409.90 229.48 404.00 227.82
  C 400.83 226.92 401.08 222.83 404.17 221.67
  Q 411.77 218.81 418.79 222.78
  A 0.97 0.96 54.3 0 1 418.50 224.57
  Q 416.25 224.99 414.53 223.56
  Q 414.14 223.24 413.63 223.16
  C 411.65 222.85 406.99 222.19 405.80 223.98
  Z"
/>
<path fill="#8f8f8c" d="
  M 46.46 231.26
  C 49.46 234.45 53.20 234.06 57.82 233.43
  A 0.81 0.79 -76.7 0 0 58.37 233.08
  Q 59.98 230.74 62.76 231.43
  Q 63.27 231.56 63.01 232.02
  C 60.34 236.85 52.31 237.06 47.85 235.51
  C 39.45 232.57 40.79 223.70 48.73 221.49
  C 54.59 219.86 63.18 221.21 63.83 228.79
  Q 63.89 229.46 63.22 229.46
  L 47.21 229.52
  A 1.03 1.03 0.0 0 0 46.46 231.26
  Z
  M 46.44 226.77
  L 59.84 226.81
  A 0.17 0.17 0.0 0 0 60.01 226.64
  L 60.01 226.58
  A 6.24 3.09 0.2 0 0 53.79 223.47
  L 52.53 223.47
  A 6.24 3.09 0.2 0 0 46.28 226.54
  L 46.27 226.60
  A 0.17 0.17 0.0 0 0 46.44 226.77
  Z"
/>
<path fill="#8f8f8c" d="
  M 126.07 222.82
  Q 132.80 219.02 138.74 221.98
  C 142.55 223.88 141.11 232.00 141.42 235.70
  Q 141.46 236.13 141.03 236.18
  L 138.18 236.51
  A 0.59 0.59 0.0 0 1 137.52 235.93
  L 137.43 226.49
  A 2.92 2.92 0.0 0 0 135.59 223.79
  C 132.45 222.53 126.19 222.58 125.97 227.50
  Q 125.78 231.64 125.70 235.78
  Q 125.69 236.25 125.22 236.25
  L 122.34 236.25
  Q 121.68 236.25 121.69 235.59
  L 121.89 221.53
  Q 121.90 220.87 122.56 220.80
  Q 124.79 220.56 125.45 222.58
  Q 125.61 223.08 126.07 222.82
  Z"
/>
<path fill="#8f8f8c" d="
  M 273.09 230.18
  C 275.26 235.26 283.40 234.30 286.97 231.78
  Q 288.67 230.58 289.43 231.59
  Q 290.10 232.48 289.20 233.14
  Q 283.97 237.04 277.95 235.99
  C 272.27 235.00 267.93 232.75 270.05 225.97
  C 272.44 218.31 289.94 219.06 290.89 228.56
  Q 290.96 229.28 290.24 229.29
  L 273.55 229.48
  A 0.51 0.50 -11.8 0 0 273.09 230.18
  Z
  M 273.55 226.81
  L 286.67 226.67
  A 0.16 0.16 0.0 0 0 286.83 226.51
  L 286.83 226.41
  A 5.69 3.24 -0.6 0 0 281.10 223.23
  L 279.04 223.25
  A 5.69 3.24 -0.6 0 0 273.39 226.55
  L 273.39 226.65
  A 0.16 0.16 0.0 0 0 273.55 226.81
  Z"
/>
<rect fill="#8f8f8c" x="-1.90" y="-7.73" transform="translate(341.45,228.51) rotate(-0.2)" width="3.80" height="15.46" rx="0.77"/>
<path fill="#9ba66c" d="
  M 353.02 234.25
  C 348.53 231.44 348.47 224.36 353.79 222.10
  C 357.13 220.68 367.31 219.48 368.94 224.33
  A 1.28 1.27 10.7 0 1 366.91 225.71
  Q 363.96 223.25 360.69 223.12
  C 356.66 222.96 353.37 224.33 353.50 229.02
  C 353.65 234.66 363.94 235.35 366.50 230.89
  Q 366.76 230.44 367.28 230.41
  L 369.35 230.32
  Q 370.27 230.28 369.93 231.13
  C 367.47 237.31 357.46 237.03 353.02 234.25
  Z"
/>
<path fill="#8f8f8c" d="
  M 72.82 228.82
  C 73.25 234.42 80.42 235.20 84.35 232.89
  Q 84.83 232.62 85.07 232.13
  Q 86.31 229.68 89.15 230.64
  Q 89.65 230.80 89.41 231.27
  C 86.06 237.65 77.29 237.38 71.92 234.09
  C 66.67 230.88 69.43 223.34 74.73 221.68
  Q 81.18 219.66 87.59 223.25
  A 1.42 1.40 28.3 0 1 88.16 225.13
  Q 87.36 226.64 85.70 225.27
  C 82.22 222.40 72.30 222.10 72.82 228.82
  Z"
/>
<rect fill="#8f8f8c" x="-1.87" y="-7.60" transform="translate(151.63,228.65) rotate(-0.1)" width="3.74" height="15.20" rx="0.49"/>
<path fill="#8f8f8c" d="
  M 169.21 233.76
  C 172.47 233.86 175.13 234.06 176.79 230.94
  A 0.82 0.81 -76.0 0 1 177.51 230.50
  L 180.23 230.50
  A 0.60 0.60 0.0 0 1 180.69 231.49
  Q 174.31 238.82 165.16 235.30
  C 159.88 233.27 157.63 227.16 162.45 223.27
  C 166.81 219.74 175.86 220.03 179.52 224.71
  A 0.69 0.69 0.0 0 1 179.26 225.77
  C 177.90 226.38 176.93 225.83 175.70 224.91
  Q 172.40 222.47 167.76 223.59
  C 161.41 225.12 162.41 233.56 169.21 233.76
  Z"
/>
<path fill="#9ba66c" d="
  M 200.62 224.10
  Q 195.78 222.42 190.82 223.75
  A 1.37 1.33 -78.4 0 0 190.10 224.24
  Q 188.65 226.13 186.23 225.72
  A 0.56 0.55 16.6 0 1 185.81 224.96
  C 187.97 219.88 204.66 218.96 204.82 225.82
  Q 204.93 230.85 205.62 235.83
  Q 205.71 236.48 205.06 236.52
  Q 202.89 236.65 201.54 234.95
  A 0.79 0.78 59.4 0 0 200.63 234.71
  Q 194.02 237.45 187.44 235.40
  C 184.10 234.36 183.56 230.98 186.90 229.53
  C 191.29 227.63 195.88 227.95 200.31 227.33
  A 1.67 1.67 0.0 0 0 200.62 224.10
  Z
  M 201.26 229.21
  L 188.32 230.66
  A 0.20 0.20 0.0 0 0 188.14 230.88
  L 188.17 231.15
  A 4.76 3.53 -6.4 0 0 193.30 234.12
  L 197.17 233.69
  A 4.76 3.53 -6.4 0 0 201.51 229.65
  L 201.48 229.38
  A 0.20 0.20 0.0 0 0 201.26 229.21
  Z"
/>
<path fill="#ffffff" d="
  M 378.27 226.66
  A 0.16 0.16 0.0 0 1 378.11 226.50
  L 378.11 226.42
  A 6.99 3.22 -1.3 0 1 385.02 223.04
  L 385.22 223.04
  A 6.99 3.22 -1.3 0 1 392.28 226.10
  L 392.28 226.18
  A 0.16 0.16 0.0 0 1 392.13 226.34
  L 378.27 226.66
  Z"
/>
<path fill="#ffffff" d="
  M 273.55 226.81
  A 0.16 0.16 0.0 0 1 273.39 226.65
  L 273.39 226.55
  A 5.69 3.24 -0.6 0 1 279.04 223.25
  L 281.10 223.23
  A 5.69 3.24 -0.6 0 1 286.83 226.41
  L 286.83 226.51
  A 0.16 0.16 0.0 0 1 286.67 226.67
  L 273.55 226.81
  Z"
/>
<path fill="#ffffff" d="
  M 46.44 226.77
  A 0.17 0.17 0.0 0 1 46.27 226.60
  L 46.28 226.54
  A 6.24 3.09 0.2 0 1 52.53 223.47
  L 53.79 223.47
  A 6.24 3.09 0.2 0 1 60.01 226.58
  L 60.01 226.64
  A 0.17 0.17 0.0 0 1 59.84 226.81
  L 46.44 226.77
  Z"
/>
<path fill="#ffffff" d="
  M 201.26 229.21
  A 0.20 0.20 0.0 0 1 201.48 229.38
  L 201.51 229.65
  A 4.76 3.53 -6.4 0 1 197.17 233.69
  L 193.30 234.12
  A 4.76 3.53 -6.4 0 1 188.17 231.15
  L 188.14 230.88
  A 0.20 0.20 0.0 0 1 188.32 230.66
  L 201.26 229.21
  Z"
/>
<path fill="#8f8f8c" d="
  M 339.81 243.51
  C 338.88 243.50 337.53 243.96 336.58 243.80
  Q 333.79 243.32 336.75 243.31
  L 423.32 243.04
  Q 423.42 243.04 423.49 243.11
  L 423.69 243.31
  A 0.21 0.20 66.9 0 1 423.55 243.66
  Q 381.72 243.99 339.81 243.51
  Z"
/>
</svg>
